<svg id="Logo" xmlns="http://www.w3.org/2000/svg" viewBox="0 0 496.38 204.84"><defs><style>.cls-1{fill:#7d0f4b;}</style></defs><path class="cls-1" d="M163.66,155.81a6.72,6.72,0,0,1-2.68-.54,7.15,7.15,0,0,1-2.19-1.47,6.86,6.86,0,0,1-1.46-2.22,7.43,7.43,0,0,1,0-5.51,6.71,6.71,0,0,1,1.46-2.21,7.17,7.17,0,0,1,2.19-1.48,6.9,6.9,0,0,1,5.35,0,6.94,6.94,0,0,1,2.19,1.48,6.71,6.71,0,0,1,1.46,2.21,7.22,7.22,0,0,1,.53,2.76v.92H159.57a4.68,4.68,0,0,0,.53,1.5,3.86,3.86,0,0,0,.92,1.12,4,4,0,0,0,1.23.7,4.09,4.09,0,0,0,1.41.24,4.89,4.89,0,0,0,1.76-.28,4.26,4.26,0,0,0,1.19-.64,3.65,3.65,0,0,0,.87-.93h2.9a7,7,0,0,1-1.4,2.19,9.06,9.06,0,0,1-.9.79,5.26,5.26,0,0,1-1.16.7,7.46,7.46,0,0,1-1.47.49A8.35,8.35,0,0,1,163.66,155.81Zm4-8.3a4.1,4.1,0,0,0-.4-1.16,3,3,0,0,0-.79-1,4.35,4.35,0,0,0-4.1-.78,4,4,0,0,0-1.18.62,3.64,3.64,0,0,0-.91,1,4.12,4.12,0,0,0-.53,1.33Z"/><path class="cls-1" d="M175.9,148.83l-4-6.72h3.17l3,5.4h.65l3-5.4H185l-4,6.72,4.08,6.72H182L178.79,150h-.65L175,155.55h-3.16Z"/><path class="cls-1" d="M187.51,142.11h2.77v1.71h.13a6,6,0,0,1,1.08-1,6.91,6.91,0,0,1,1.31-.68,4.87,4.87,0,0,1,1.83-.32,6.19,6.19,0,0,1,2.49.5,6.26,6.26,0,0,1,2,1.41,6.68,6.68,0,0,1,1.35,2.2,8.68,8.68,0,0,1,0,5.75,6.58,6.58,0,0,1-1.35,2.2,6,6,0,0,1-4.49,1.91,5.09,5.09,0,0,1-1.83-.3,6.38,6.38,0,0,1-1.31-.67,5.46,5.46,0,0,1-1.08-1h-.13v6.72h-2.77Zm6.59,11.2a3.73,3.73,0,0,0,2.87-1.15,5.65,5.65,0,0,0,0-6.67,3.76,3.76,0,0,0-2.87-1.14,3.6,3.6,0,0,0-2.75,1.14,5.73,5.73,0,0,0,0,6.67A3.57,3.57,0,0,0,194.1,153.31Z"/><path class="cls-1" d="M210.14,155.81a6.72,6.72,0,0,1-2.68-.54,7.15,7.15,0,0,1-2.19-1.47,6.86,6.86,0,0,1-1.46-2.22,7.43,7.43,0,0,1,0-5.51,6.71,6.71,0,0,1,1.46-2.21,7.17,7.17,0,0,1,2.19-1.48,6.9,6.9,0,0,1,5.35,0,7.06,7.06,0,0,1,2.19,1.48,6.71,6.71,0,0,1,1.46,2.21,7.22,7.22,0,0,1,.53,2.76v.92H206.05a4.68,4.68,0,0,0,.53,1.5,3.86,3.86,0,0,0,.92,1.12,4,4,0,0,0,1.22.7,4.19,4.19,0,0,0,1.42.24,4.89,4.89,0,0,0,1.76-.28,4.26,4.26,0,0,0,1.19-.64,3.65,3.65,0,0,0,.87-.93h2.9a7,7,0,0,1-1.4,2.19,9.06,9.06,0,0,1-.9.79,5.26,5.26,0,0,1-1.16.7,7.46,7.46,0,0,1-1.47.49A8.35,8.35,0,0,1,210.14,155.81Zm4-8.3a4.1,4.1,0,0,0-.4-1.16,3,3,0,0,0-.79-1,4.35,4.35,0,0,0-4.1-.78,4,4,0,0,0-1.18.62,3.64,3.64,0,0,0-.91,1,4.12,4.12,0,0,0-.53,1.33Z"/><path class="cls-1" d="M220.08,142.11h2.76v2H223a4.18,4.18,0,0,1,.85-1.05,6.44,6.44,0,0,1,1.14-.79,3.37,3.37,0,0,1,1.7-.4h1.59v2.64h-1.72a3.91,3.91,0,0,0-1.46.27,3.38,3.38,0,0,0-1.17.74,3.12,3.12,0,0,0-.78,1.18,4.18,4.18,0,0,0-.28,1.54v7.34h-2.76Z"/><path class="cls-1" d="M232.19,140.13a1.6,1.6,0,0,1-1.16-.47,1.58,1.58,0,0,1-.47-1.17,1.62,1.62,0,0,1,.47-1.17,1.58,1.58,0,0,1,1.16-.49,1.67,1.67,0,0,1,1.66,1.66,1.56,1.56,0,0,1-.49,1.17A1.62,1.62,0,0,1,232.19,140.13Zm-1.37,2h2.77v13.44h-2.77Z"/><path class="cls-1" d="M243.47,155.81a6.72,6.72,0,0,1-2.68-.54,7.15,7.15,0,0,1-2.19-1.47,6.86,6.86,0,0,1-1.46-2.22,7.43,7.43,0,0,1,0-5.51,6.71,6.71,0,0,1,1.46-2.21,7.17,7.17,0,0,1,2.19-1.48,6.72,6.72,0,0,1,2.68-.54,6.64,6.64,0,0,1,2.67.54,6.94,6.94,0,0,1,2.19,1.48,6.71,6.71,0,0,1,1.46,2.21,7.22,7.22,0,0,1,.53,2.76v.92H239.38a4.93,4.93,0,0,0,.53,1.5,3.86,3.86,0,0,0,.92,1.12,4,4,0,0,0,1.23.7,4.18,4.18,0,0,0,1.41.24,4.89,4.89,0,0,0,1.76-.28,4.26,4.26,0,0,0,1.19-.64,3.65,3.65,0,0,0,.87-.93h2.9a7,7,0,0,1-1.4,2.19,10.16,10.16,0,0,1-.89.79,5.77,5.77,0,0,1-1.16.7,7.56,7.56,0,0,1-1.48.49A8.35,8.35,0,0,1,243.47,155.81Zm3.95-8.3a4.41,4.41,0,0,0-.39-1.16,3.25,3.25,0,0,0-.79-1,4.39,4.39,0,0,0-1.19-.72,4.33,4.33,0,0,0-1.58-.27,4.25,4.25,0,0,0-1.33.21,4.09,4.09,0,0,0-1.19.62,3.64,3.64,0,0,0-.91,1,4.12,4.12,0,0,0-.53,1.33Z"/><path class="cls-1" d="M253.41,142.11h2.77V144h.13a4.15,4.15,0,0,1,1-1,5.93,5.93,0,0,1,1.31-.73,5,5,0,0,1,1.93-.33,5.15,5.15,0,0,1,3.88,1.44,5.85,5.85,0,0,1,1.4,4.23v8H263v-7.78a3.7,3.7,0,0,0-.79-2.61,3.18,3.18,0,0,0-2.37-.81,3.57,3.57,0,0,0-1.47.29,3.64,3.64,0,0,0-1.17.8,3.74,3.74,0,0,0-.78,1.24,4.59,4.59,0,0,0-.27,1.62v7.25h-2.77Z"/><path class="cls-1" d="M275.51,155.81a7,7,0,0,1-2.67-.51,6.3,6.3,0,0,1-2.13-1.45,6.74,6.74,0,0,1-1.41-2.21,7.85,7.85,0,0,1,0-5.62,6.74,6.74,0,0,1,1.41-2.21,6.16,6.16,0,0,1,2.13-1.45,6.8,6.8,0,0,1,2.67-.52,7.25,7.25,0,0,1,1.81.21,6.52,6.52,0,0,1,1.47.56,5.21,5.21,0,0,1,1.12.79,11.33,11.33,0,0,1,.84.89,6.53,6.53,0,0,1,1.21,2.43h-2.89a3.32,3.32,0,0,0-.69-1.19,3.65,3.65,0,0,0-2.87-1.18,3.56,3.56,0,0,0-2.71,1.21A4.42,4.42,0,0,0,272,147a5.41,5.41,0,0,0-.31,1.86,5.5,5.5,0,0,0,.31,1.86,4.42,4.42,0,0,0,.81,1.41A3.69,3.69,0,0,0,274,153a3.56,3.56,0,0,0,1.49.32,3.94,3.94,0,0,0,1.84-.37,4.12,4.12,0,0,0,1.13-.82,3.24,3.24,0,0,0,.72-1.18H282a6.47,6.47,0,0,1-1.21,2.45,8.58,8.58,0,0,1-.84.88,5.55,5.55,0,0,1-1.12.78,6.51,6.51,0,0,1-1.47.55A7.25,7.25,0,0,1,275.51,155.81Z"/><path class="cls-1" d="M291,155.81a6.72,6.72,0,0,1-2.68-.54,7.15,7.15,0,0,1-2.19-1.47,6.86,6.86,0,0,1-1.46-2.22,7.43,7.43,0,0,1,0-5.51,6.71,6.71,0,0,1,1.46-2.21,7.17,7.17,0,0,1,2.19-1.48,6.9,6.9,0,0,1,5.35,0,6.94,6.94,0,0,1,2.19,1.48,6.71,6.71,0,0,1,1.46,2.21,7.22,7.22,0,0,1,.53,2.76v.92H286.9a4.93,4.93,0,0,0,.53,1.5,3.86,3.86,0,0,0,.92,1.12,4,4,0,0,0,1.23.7,4.09,4.09,0,0,0,1.41.24,4.89,4.89,0,0,0,1.76-.28,4.26,4.26,0,0,0,1.19-.64,3.65,3.65,0,0,0,.87-.93h2.9a7,7,0,0,1-1.4,2.19,9.06,9.06,0,0,1-.9.79,5.26,5.26,0,0,1-1.16.7,7.46,7.46,0,0,1-1.47.49A8.35,8.35,0,0,1,291,155.81Zm3.95-8.3a4.1,4.1,0,0,0-.4-1.16,3,3,0,0,0-.79-1,4.35,4.35,0,0,0-4.1-.78,4,4,0,0,0-1.18.62,3.64,3.64,0,0,0-.91,1,4.12,4.12,0,0,0-.53,1.33Z"/><path class="cls-1" d="M309.17,137.1h2.77v10.28h2l4.08-5.27h3.17l-4.88,6.19,5.27,7.25h-3.42l-4.09-5.67h-2.11v5.67h-2.77Z"/><path class="cls-1" d="M323.89,142.11h2.77V144h.13a4.15,4.15,0,0,1,1-1,5.93,5.93,0,0,1,1.31-.73,5,5,0,0,1,1.93-.33,5.15,5.15,0,0,1,3.88,1.44,5.85,5.85,0,0,1,1.4,4.23v8h-2.77v-7.78a3.66,3.66,0,0,0-.79-2.61,3.18,3.18,0,0,0-2.37-.81,3.57,3.57,0,0,0-1.47.29,3.64,3.64,0,0,0-1.17.8,3.74,3.74,0,0,0-.78,1.24,4.59,4.59,0,0,0-.27,1.62v7.25h-2.77Z"/><path class="cls-1" d="M346.2,155.81a7,7,0,0,1-6.44-9.74,6.89,6.89,0,0,1,1.47-2.21,7,7,0,0,1,5-2,7,7,0,0,1,2.76.54,6.85,6.85,0,0,1,3.69,3.69,7.09,7.09,0,0,1-1.48,7.73,6.89,6.89,0,0,1-2.21,1.47A7,7,0,0,1,346.2,155.81Zm0-2.5a4.22,4.22,0,0,0,1.65-.32,3.77,3.77,0,0,0,1.29-.89,4.13,4.13,0,0,0,.84-1.41,5.26,5.26,0,0,0,.31-1.86A5.18,5.18,0,0,0,350,147a4.13,4.13,0,0,0-.84-1.41,3.66,3.66,0,0,0-1.29-.9,4.55,4.55,0,0,0-3.3,0,3.66,3.66,0,0,0-1.29.9,4.13,4.13,0,0,0-.84,1.41,5.42,5.42,0,0,0-.3,1.86,5.5,5.5,0,0,0,.3,1.86,4.13,4.13,0,0,0,.84,1.41,3.77,3.77,0,0,0,1.29.89A4.26,4.26,0,0,0,346.2,153.31Z"/><path class="cls-1" d="M354.93,142.11h2.9L360.07,153h.4l2.24-10.93h4L368.9,153h.4l2.24-10.93h2.9l-2.9,13.44H366.8l-2-10.28h-.27l-2,10.28h-4.75Z"/><path class="cls-1" d="M377.15,137.1h2.77V153h3v2.51h-5.8Z"/><path class="cls-1" d="M391.32,155.81a6.72,6.72,0,0,1-2.68-.54,7,7,0,0,1-2.18-1.47,6.72,6.72,0,0,1-1.47-2.22,7.56,7.56,0,0,1,0-5.51,6.58,6.58,0,0,1,1.47-2.21,7,7,0,0,1,2.18-1.48,6.72,6.72,0,0,1,2.68-.54,6.64,6.64,0,0,1,2.67.54,6.94,6.94,0,0,1,2.19,1.48,6.56,6.56,0,0,1,1.46,2.21,7,7,0,0,1,.53,2.76v.92H387.23a4.93,4.93,0,0,0,.53,1.5,4,4,0,0,0,.92,1.12,4,4,0,0,0,1.23.7,4.18,4.18,0,0,0,1.41.24,4.89,4.89,0,0,0,1.76-.28,4.12,4.12,0,0,0,1.19-.64,3.65,3.65,0,0,0,.87-.93H398a6.78,6.78,0,0,1-1.4,2.19,10.16,10.16,0,0,1-.89.79,5.5,5.5,0,0,1-1.16.7,7.34,7.34,0,0,1-1.48.49A8.28,8.28,0,0,1,391.32,155.81Zm3.95-8.3a4.41,4.41,0,0,0-.39-1.16,3.25,3.25,0,0,0-.79-1,4.39,4.39,0,0,0-1.19-.72,4.55,4.55,0,0,0-2.91-.06,4.09,4.09,0,0,0-1.19.62,3.64,3.64,0,0,0-.91,1,4.36,4.36,0,0,0-.53,1.33Z"/><path class="cls-1" d="M406.87,155.81a6,6,0,0,1-2.49-.5,5.87,5.87,0,0,1-2-1.41,6.42,6.42,0,0,1-1.35-2.2,8.68,8.68,0,0,1,0-5.75,6.52,6.52,0,0,1,1.35-2.2,6,6,0,0,1,4.49-1.91,4.92,4.92,0,0,1,1.82.32,7.34,7.34,0,0,1,1.32.68,6,6,0,0,1,1.08,1h.13V137.1H414v18.45h-2.77v-1.71h-.13a5.46,5.46,0,0,1-1.08,1,6.75,6.75,0,0,1-1.32.67A5.15,5.15,0,0,1,406.87,155.81Zm.53-2.5a3.57,3.57,0,0,0,2.75-1.15,5.73,5.73,0,0,0,0-6.67,3.6,3.6,0,0,0-2.75-1.14,3.78,3.78,0,0,0-2.88,1.14,5.69,5.69,0,0,0,0,6.67A3.75,3.75,0,0,0,407.4,153.31Z"/><path class="cls-1" d="M419.09,158.05h8.7v-4.21h-.13a5.46,5.46,0,0,1-1.08,1,6.23,6.23,0,0,1-1.32.67,5.07,5.07,0,0,1-1.82.3,6.09,6.09,0,0,1-2.49-.5,6,6,0,0,1-2-1.41,6.4,6.4,0,0,1-1.34-2.2,8.68,8.68,0,0,1,0-5.75,6.5,6.5,0,0,1,1.34-2.2,6,6,0,0,1,4.49-1.91,4.85,4.85,0,0,1,1.82.32,6.72,6.72,0,0,1,1.32.68,5.5,5.5,0,0,1,1.08,1h.13v-1.74h2.77v18.45H419.09Zm4.88-4.74a3.56,3.56,0,0,0,2.75-1.15,5.73,5.73,0,0,0,0-6.67,3.58,3.58,0,0,0-2.75-1.14,3.77,3.77,0,0,0-2.87,1.14,5.69,5.69,0,0,0,0,6.67A3.74,3.74,0,0,0,424,153.31Z"/><path class="cls-1" d="M440.5,155.81a6.72,6.72,0,0,1-2.68-.54,7,7,0,0,1-2.18-1.47,6.88,6.88,0,0,1-1.47-2.22,7.56,7.56,0,0,1,0-5.51,6.73,6.73,0,0,1,1.47-2.21,7,7,0,0,1,2.18-1.48,6.92,6.92,0,0,1,5.36,0,7,7,0,0,1,2.18,1.48,6.73,6.73,0,0,1,1.47,2.21,7.21,7.21,0,0,1,.52,2.76v.92H436.42a4.92,4.92,0,0,0,.52,1.5,4,4,0,0,0,.92,1.12,4,4,0,0,0,1.23.7,4.18,4.18,0,0,0,1.41.24,4.94,4.94,0,0,0,1.77-.28,4.19,4.19,0,0,0,1.18-.64,3.65,3.65,0,0,0,.87-.93h2.9a6.78,6.78,0,0,1-1.4,2.19,10.16,10.16,0,0,1-.89.79,5.5,5.5,0,0,1-1.16.7,7.34,7.34,0,0,1-1.48.49A8.28,8.28,0,0,1,440.5,155.81Zm3.95-8.3a4.41,4.41,0,0,0-.39-1.16,3.11,3.11,0,0,0-.79-1,4.39,4.39,0,0,0-1.19-.72,4.55,4.55,0,0,0-2.91-.06,4.09,4.09,0,0,0-1.19.62,3.64,3.64,0,0,0-.91,1,4.1,4.1,0,0,0-.52,1.33Z"/><path class="cls-1" d="M253.59,73.08A16,16,0,0,0,247.41,69a22.81,22.81,0,0,0-8-1.36,19.92,19.92,0,0,0-7.45,1.23,21.13,21.13,0,0,0-5,2.74,19.12,19.12,0,0,0-3.82,4.17h-.2V68.63H212.62v49h10.29V91.55a17.17,17.17,0,0,1,1-6.09,13.75,13.75,0,0,1,2.89-4.64,13.24,13.24,0,0,1,4.37-3,13.66,13.66,0,0,1,5.43-1.06,12.15,12.15,0,0,1,8.78,3.14q3.27,3.14,3.28,9.71v28H259V88.48a25.53,25.53,0,0,0-1.42-8.86,19.21,19.21,0,0,0-4-6.54"/><path class="cls-1" d="M307.69,99.84a16.19,16.19,0,0,1-3.18,5.11,13.5,13.5,0,0,1-4.76,3.3,15.23,15.23,0,0,1-6,1.15,14.67,14.67,0,0,1-5.84-1.15,13.55,13.55,0,0,1-4.7-3.3,15.41,15.41,0,0,1-3.14-5.11,20.63,20.63,0,0,1,0-13.41,15.56,15.56,0,0,1,3.14-5.12,14.13,14.13,0,0,1,10.54-4.54,14.9,14.9,0,0,1,6,1.19,14.62,14.62,0,0,1,4.76,3.3,15.63,15.63,0,0,1,3.18,5.13,18.51,18.51,0,0,1,1.18,6.74,18.2,18.2,0,0,1-1.18,6.71m21.56-40.62V49H308.87V76.08h-.29a17.92,17.92,0,0,0-3.88-4.26A23.61,23.61,0,0,0,299.46,69a20,20,0,0,0-7.65-1.33,22.21,22.21,0,0,0-9,1.84,22.87,22.87,0,0,0-7.45,5.21,24,24,0,0,0-5.05,8.06A28.21,28.21,0,0,0,268.49,93a28.92,28.92,0,0,0,1.81,10.43,23.41,23.41,0,0,0,5.05,8,23.85,23.85,0,0,0,7.45,5.22,21.91,21.91,0,0,0,9,1.88,21.29,21.29,0,0,0,12.89-4,17.92,17.92,0,0,0,3.88-4.26h.29v7.25h20.38v-10.2H319.06V59.22Z"/><path class="cls-1" d="M116.78,81.31A15.06,15.06,0,0,1,121.54,78a15.85,15.85,0,0,1,12.59.23,16.24,16.24,0,0,1,4.22,3.09,15.4,15.4,0,0,1,2,2.81L147.47,77c-.07-.1-.13-.21-.21-.31a29.52,29.52,0,0,0-3.18-3.29,21.2,21.2,0,0,0-4.26-2.89,26.51,26.51,0,0,0-5.49-2,27.65,27.65,0,0,0-7-.79,26.23,26.23,0,0,0-10,1.93,24.5,24.5,0,0,0-8.13,5.36,24.75,24.75,0,0,0-5.39,8.11,26.93,26.93,0,0,0,0,20.17,24.86,24.86,0,0,0,5.39,8.11,24.5,24.5,0,0,0,8.13,5.36,26.23,26.23,0,0,0,10,1.93,28.82,28.82,0,0,0,7.06-.79,24.75,24.75,0,0,0,5.63-2.1,21.11,21.11,0,0,0,4.32-3,20.52,20.52,0,0,0,3-3.45l-7-7a15.29,15.29,0,0,1-1.73,2.45,17,17,0,0,1-4.36,3.23,14.24,14.24,0,0,1-6.91,1.47,13.87,13.87,0,0,1-5.73-1.19,15.41,15.41,0,0,1-4.76-3.3,15.94,15.94,0,0,1-3.28-5.08,17.32,17.32,0,0,1-1.23-6.7,18.25,18.25,0,0,1,1.18-6.65,15.85,15.85,0,0,1,3.23-5.17"/><path class="cls-1" d="M164.76,88.32c1.5-6.61,6.7-11.55,13.76-11.55s11.56,4.94,13.06,11.55Zm14-20.67c-14.69,0-25.06,11.15-25.06,25,0,.17,0,.33,0,.49,0,.81,0,1.6.1,2.39,0,.08,0,.17,0,.26.05.58.13,1.16.22,1.73,0,.14.05.28.07.41a26.38,26.38,0,0,0,.82,3.32c.05.13.09.26.13.4.19.53.38,1.06.6,1.58a24.43,24.43,0,0,0,13.52,13.47,26.23,26.23,0,0,0,10,1.93,28.82,28.82,0,0,0,7.06-.79,24.75,24.75,0,0,0,5.63-2.1,20.73,20.73,0,0,0,4.32-3,21.05,21.05,0,0,0,3-3.45l-7-7a15,15,0,0,1-1.73,2.44,17.22,17.22,0,0,1-4.36,3.23,14.36,14.36,0,0,1-6.91,1.47,13.87,13.87,0,0,1-5.73-1.19,15.41,15.41,0,0,1-4.76-3.3,16,16,0,0,1-3.28-5.07c-.17-.41-.31-.83-.44-1.26-.06-.19-.12-.39-.17-.59l-.12-.49c-.12-.56-.23-1.13-.31-1.72h38.3v-2.9c0-15.11-10-25.23-23.9-25.23"/><path class="cls-1" d="M79.54,93.6c0,9.85-7.58,15.77-14.51,15.77-4.55,0-8.14-2.49-8.14-7,0-6.38,9.84-10.18,22.65-10.18Zm10.29,13.84V68.6H49.05V78.8H79.54V84c-24,0-33.37,6.91-33.74,18.67-.32,9.9,7.47,15.95,17,15.95,6.14,0,12.79-2.42,16.47-8.22h.32v7.26H97.47v-10.2Z"/></svg>