<?xml version="1.0" encoding="utf-8"?>
<!-- Generator: Adobe Illustrator 24.1.0, SVG Export Plug-In . SVG Version: 6.00 Build 0)  -->
<svg version="1.1" id="Camada_1" xmlns:serif="http://www.serif.com/"
	 xmlns="http://www.w3.org/2000/svg" xmlns:xlink="http://www.w3.org/1999/xlink" x="0px" y="0px" viewBox="0 0 1491.3 376.7"
	 style="enable-background:new 0 0 1491.3 376.7;" xml:space="preserve">
<style type="text/css">
	.st0{fill:#060E12;}
	.st1{fill-rule:evenodd;clip-rule:evenodd;fill:#E65013;}
</style>
<g>
	<g>
		<g>
			<path class="st0" d="M421.5,187.5h25.9c6.2,0,11.7-0.8,16.5-2.6c4.8-1.8,8.8-4.3,12-7.4c3.2-3.2,5.6-7,7.3-11.5
				c1.7-4.4,2.5-9.3,2.5-14.6c0-11.2-3.1-19.8-9.4-26c-6.3-6.2-15.9-9.3-28.8-9.3h-25.9v71.4H421.5z M421.5,206.7v65.1h-24.2V97.3
				h50.1c10.6,0,19.8,1.3,27.7,3.9c7.8,2.6,14.3,6.2,19.5,10.9c5.1,4.7,9,10.4,11.5,17.1c2.5,6.7,3.8,14.2,3.8,22.4
				c0,8.1-1.4,15.5-4.1,22.3c-2.7,6.8-6.7,12.5-12,17.4s-11.8,8.8-19.5,11.5c-7.7,2.7-16.7,4.1-26.9,4.1h-25.8V206.7z"/>
			<path class="st0" d="M535.7,271.8v-130h13.5c2.5,0,4.3,0.5,5.2,1.5c1,0.9,1.6,2.6,1.8,4.9l1.6,19.1c4-8.6,8.9-15.3,14.7-20.3
				c5.8-5,12.9-7.4,21.1-7.4c2.7,0,5.3,0.3,7.7,0.8c2.4,0.5,4.6,1.6,6.5,2.8l-1.9,17.3c-0.3,2.2-1.5,3.3-3.8,3.3
				c-1.3,0-3-0.2-5.2-0.7c-2.3-0.5-4.8-0.7-7.5-0.7c-4,0-7.5,0.6-10.5,1.8c-3,1.1-5.8,2.9-8.2,5.3c-2.4,2.3-4.6,5.2-6.5,8.6
				c-1.9,3.3-3.5,7.2-5.2,11.6v82.1h-23.2V271.8z"/>
			<path class="st0" d="M680.8,255.5c6.3,0,11.8-1,16.5-3.2c4.7-2.2,8.7-5.3,11.8-9.5s5.5-9.3,7-15.2c1.6-6.1,2.3-12.9,2.3-20.6
				c0-7.6-0.7-14.6-2.3-20.6c-1.6-6.1-3.9-11.2-7-15.2c-3.1-4.2-7.1-7.3-11.8-9.6c-4.7-2.2-10.2-3.3-16.5-3.3
				c-6.4,0-11.9,1.1-16.7,3.3c-4.7,2.2-8.7,5.4-11.8,9.6c-3.1,4.2-5.5,9.3-7,15.2c-1.6,6.1-2.3,12.9-2.3,20.6
				c0,7.6,0.7,14.6,2.3,20.6c1.6,6.1,3.9,11.2,7,15.2c3.1,4.2,7.1,7.3,11.8,9.5C668.8,254.4,674.3,255.5,680.8,255.5z M680.8,139.8
				c9.5,0,18.1,1.6,25.7,4.7s14.1,7.6,19.4,13.5c5.3,5.8,9.4,12.8,12.3,21.1c2.9,8.2,4.3,17.4,4.3,27.7c0,10.2-1.5,19.5-4.3,27.8
				c-2.9,8.2-7,15.2-12.3,21.1c-5.3,5.8-11.8,10.2-19.4,13.5c-7.6,3.1-16.2,4.7-25.7,4.7s-18.1-1.6-25.7-4.7
				c-7.6-3.1-14.2-7.6-19.5-13.5s-9.5-12.8-12.3-21.1c-2.9-8.2-4.3-17.5-4.3-27.8c0-10.2,1.5-19.4,4.3-27.7
				c2.9-8.2,7-15.2,12.3-21.1c5.3-5.8,11.9-10.2,19.5-13.5C662.7,141.4,671.3,139.8,680.8,139.8z"/>
			<path class="st0" d="M771.8,271.8v-130h13.8c1.8,0,3.1,0.4,4.2,1.1c1,0.7,1.6,2,1.8,3.7l2,13.3c2.5-2.9,5.1-5.6,7.7-8
				c2.7-2.4,5.6-4.6,8.7-6.4c3.1-1.8,6.5-3.2,9.9-4.2c3.5-0.9,7.3-1.5,11.3-1.5c9,0,16.3,2.4,21.8,7.3c5.6,4.9,9.6,11.5,12,19.6
				c1.9-4.8,4.3-8.9,7.4-12.2c3-3.3,6.5-6.2,10.1-8.3c3.8-2.2,7.7-3.9,12-4.8c4.3-1,8.6-1.6,13-1.6c14.2,0,25.1,4.3,32.9,12.7
				c7.7,8.5,11.6,20.7,11.6,36.4v82.7h-23.1V189c0-10.1-2.3-17.7-6.9-23c-4.6-5.2-11.2-7.7-19.8-7.7c-3.9,0-7.6,0.6-11.1,1.9
				s-6.5,3.2-9.1,5.8s-4.7,5.8-6.3,9.6c-1.6,3.9-2.3,8.2-2.3,13.3v82.7h-23.4v-82.7c0-10.3-2.2-18.1-6.5-23.2
				c-4.3-5-10.6-7.6-18.9-7.6c-5.6,0-11,1.5-16,4.5c-5,2.9-9.5,7.1-13.6,12.3v96.7h-23.4V271.8z"/>
		</g>
		<g>
			<polygon class="st0" points="1031.8,251.5 1099.2,251.5 1099.2,271.8 1007.7,271.8 1007.7,97.3 1031.8,97.3 			"/>
			<path class="st0" d="M1158.3,257.4c3.9,0,7.5-0.4,10.7-1.1c3.2-0.8,6.4-1.9,9.3-3.3c2.9-1.5,5.7-3.2,8.3-5.4
				c2.6-2.2,5.2-4.6,7.8-7.2v-26.8c-10.3,0.4-19.2,1.4-26.4,2.6c-7.3,1.3-13.1,3-17.7,5.1c-4.6,2.1-7.8,4.6-9.9,7.5
				c-2.1,2.9-3,6.1-3,9.6c0,3.3,0.5,6.3,1.7,8.7c1.1,2.4,2.6,4.4,4.5,5.9c1.9,1.6,4.1,2.7,6.7,3.4
				C1152.6,257.1,1155.3,257.4,1158.3,257.4z M1207,271.8c-2.3,0-4.1-0.3-5.3-1s-2.1-2.2-2.5-4.4l-2.9-12.1
				c-3.3,3.1-6.7,5.8-9.9,8.3c-3.2,2.4-6.6,4.5-10.1,6.2c-3.5,1.7-7.3,2.9-11.4,3.8c-4.1,0.8-8.6,1.3-13.5,1.3
				c-5,0-9.8-0.7-14.2-2.1c-4.4-1.4-8.2-3.5-11.6-6.4c-3.3-2.9-5.9-6.5-7.8-10.7c-1.9-4.3-2.8-9.4-2.8-15.2c0-5.1,1.4-10.1,4.2-14.8
				c2.8-4.7,7.3-9,13.7-12.7c6.3-3.8,14.5-6.8,24.6-9.1c10.1-2.3,22.5-3.7,37.3-4.1v-9.9c0-10.1-2.2-17.7-6.5-22.7
				c-4.3-5.1-10.5-7.6-18.8-7.6c-5.5,0-10.1,0.7-13.9,2.1c-3.8,1.5-7,2.9-9.8,4.7c-2.7,1.7-5.1,3.2-7.1,4.7c-2,1.5-4,2.1-6.1,2.1
				c-1.6,0-3-0.4-4.2-1.1c-1.1-0.8-2.1-1.8-2.8-3l-4.3-7.4c7.2-6.9,14.9-12.1,23.2-15.4c8.2-3.4,17.4-5.1,27.5-5.1
				c7.3,0,13.8,1.1,19.4,3.5c5.6,2.3,10.4,5.7,14.2,10c3.9,4.4,6.7,9.5,8.8,15.5c2,6.1,3,12.7,3,20V272H1207V271.8z"/>
			<path class="st0" d="M1310.4,158.3c-7.2,0-13.5,1.7-19,5c-5.4,3.3-10.4,8.1-14.9,14.4v62.7c4.1,5.5,8.6,9.5,13.5,11.8
				c4.9,2.3,10.2,3.3,16.1,3.3c12,0,21.1-4.3,27.5-12.9c6.4-8.6,9.6-21.4,9.6-38.4c0-15.8-2.8-27.3-8.6-34.9
				C1328.9,162.1,1320.9,158.3,1310.4,158.3z M1253.2,271.8v-189h23.4v77.4c5.3-6.3,11.4-11.3,18.2-14.9c6.8-3.7,14.6-5.5,23.5-5.5
				c7.5,0,14.3,1.5,20.3,4.4c6.1,2.9,11.2,7.1,15.4,12.6s7.5,12.2,9.8,20s3.3,16.7,3.3,26.6c0,10.5-1.3,20.1-3.9,28.7
				c-2.6,8.6-6.3,16-11.1,22.1c-4.8,6.2-10.6,11-17.4,14.3c-6.8,3.3-14.5,5-23,5c-8.5,0-15.7-1.6-21.3-4.8
				c-5.7-3.2-10.7-7.7-15.2-13.5l-1.4,11.6c-0.3,3.2-2.3,4.9-5.7,4.9L1253.2,271.8L1253.2,271.8z"/>
			<path class="st0" d="M1465.9,163.4c-1,2-2.7,2.9-4.8,2.9c-1.4,0-2.7-0.5-4.3-1.5c-1.6-0.9-3.4-2-5.5-3.1
				c-2.2-1.1-4.7-2.2-7.7-3.1c-2.9-0.9-6.5-1.5-10.5-1.5c-3.4,0-6.6,0.5-9.3,1.5c-2.7,0.9-5.1,2.3-7.1,4c-2,1.7-3.4,3.7-4.5,5.9
				s-1.6,4.7-1.6,7.2c0,3.3,0.8,6.2,2.6,8.3c1.8,2.2,4.1,4.1,7.1,5.7c2.9,1.6,6.3,3,10,4.3c3.8,1.3,7.6,2.6,11.5,4s7.7,2.9,11.5,4.7
				c3.8,1.8,7.1,4,10,6.5c2.9,2.6,5.3,5.7,7.1,9.4c1.8,3.7,2.7,8.1,2.7,13.4c0,6.1-1,11.6-3,16.7c-2.1,5.1-5,9.5-9,13.3
				c-4,3.8-8.8,6.7-14.6,8.8c-5.8,2.1-12.4,3.2-20,3.2c-8.6,0-16.4-1.5-23.5-4.4s-13-6.8-17.8-11.4l5.4-8.8c0.7-1.1,1.6-2.1,2.5-2.6
				c0.9-0.6,2.2-0.9,3.8-0.9s3.2,0.6,4.8,1.8c1.6,1.1,3.5,2.5,5.7,4c2.3,1.5,5,2.8,8.1,4c3.2,1.1,7.2,1.8,12,1.8
				c4.1,0,7.6-0.6,10.5-1.8c2.9-1.1,5.4-2.7,7.4-4.6c2-1.9,3.4-4.2,4.4-6.7c0.9-2.6,1.5-5.2,1.5-8.1c0-3.5-0.9-6.5-2.7-8.9
				c-1.8-2.3-4.2-4.4-7.1-5.9c-2.9-1.7-6.3-3.1-10-4.3c-3.8-1.3-7.6-2.5-11.6-4c-4-1.4-7.8-2.9-11.6-4.7c-3.8-1.8-7.1-4-10-6.7
				c-2.9-2.7-5.3-6.1-7.1-9.9c-1.8-3.9-2.7-8.7-2.7-14.2c0-5,0.9-9.8,2.9-14.4c2-4.6,4.8-8.6,8.6-12c3.8-3.4,8.3-6.2,13.8-8.2
				c5.5-2.1,11.8-3,18.9-3c8,0,15.3,1.4,21.9,4s12.1,6.4,16.7,11.2L1465.9,163.4z"/>
		</g>
	</g>
	<path class="st1" d="M173.7,169.8c-7.3-4.2-17.9-0.4-20.8,7.8c-3.1,9.1,5.1,20.3,15.4,19c7.9-1,14-9.5,12.3-17.4
		C179.9,175.3,177.4,171.9,173.7,169.8z M136.9,208.3c-0.4-0.4-0.7-0.8-1.1-1.4c-7.9-9.9-10.6-23.9-6.9-36.1
		c5.2-17,22.7-29.3,41-27.9c5.8,0.5,11.5,2.3,16.7,5.3c12.6,7.4,20.5,22.2,19.4,36.8c-1.3,16.9-14.5,32.2-31.1,35.8
		c-13.4,2.8-28.1-1.9-37.4-11.9l0.1-0.2L136.9,208.3z M232.3,44.1L232.3,44.1L249,15.3l21.7,12.5L254,56.7
		c35.4,24.6,60,64.5,65.4,107.9c6.9,55.3-18.5,113.8-65.7,146.2c-37.1,25.5-85.8,33.5-129.3,21.3l13-22.6c27.1,6.1,56.3,3.5,82-8
		c43.1-19.4,73.9-63.8,76-112c1.9-42.8-18.8-85.6-54.1-111l-26.6,46c-3-2.6-6.4-4.9-9.8-6.9c-0.2-0.1-0.4-0.2-0.6-0.4
		c-16.6-9.5-36.8-12.4-55.4-8.1c-31.2,7.3-56.3,35.5-59,68.3c-1.3,15.8,2.8,31.7,11,45.3l-14,24.2c-21.7-27.8-28.6-67-15-101
		c14.1-35.1,48.8-61,87.5-63.7c15.8-1,31.7,1.7,46.3,7.8l13.9-24.1l0,0L232.3,44.1z M208.5,35.2l-13.1,22.6
		c-39-8.7-82.2,0.6-113.6,27.8c-31.4,27-48.4,69.7-44.1,111.1c3.8,36.4,23.9,70.7,53.7,92.1l26.6-46.1c6.7,5.5,14.3,10,22.6,12.9
		c22.5,7.9,48.7,4.6,68.7-9c19.3-13.1,32-35.7,33.3-59.1c0.8-15-3.1-30.1-10.7-43l13.8-23.9c15,19.3,23.4,43.9,21.9,68.9
		c-2.2,36.6-25.7,71.2-59.7,86.5c-25.3,11.4-55.1,11.5-80.9,0.9l-14,24.3l0,0l-12.5,21.7l0,0L81.9,355l-21.7-12.5l18.5-32
		c-29-20.1-51.1-50.2-60.9-84.4c-11.4-39.5-6.2-83.7,14.6-119.8c25.1-43.5,72.2-73.1,122.9-76.8C173.3,28.3,191.4,30.3,208.5,35.2z"
		/>
</g>
</svg>
