<svg width="247" height="40" viewBox="0 0 247 40" fill="none" xmlns="http://www.w3.org/2000/svg">
<path d="M51.76 30.4C49.9733 30.4 48.3733 30.0667 46.96 29.4C45.5467 28.7333 44.4267 27.8533 43.6 26.76L45.72 24.92C46.4933 25.8533 47.4 26.56 48.44 27.04C49.5067 27.52 50.6933 27.76 52 27.76C52.6667 27.76 53.2667 27.6933 53.8 27.56C54.3333 27.4 54.8 27.1733 55.2 26.88C55.6 26.5867 55.9067 26.24 56.12 25.84C56.3333 25.44 56.44 25 56.44 24.52C56.44 23.64 56.0533 22.9067 55.28 22.32C54.9333 22.08 54.44 21.84 53.8 21.6C53.16 21.3333 52.3867 21.08 51.48 20.84C49.9867 20.4133 48.7467 19.9867 47.76 19.56C46.7733 19.1067 46 18.5867 45.44 18C45.04 17.52 44.7333 17 44.52 16.44C44.3333 15.88 44.24 15.2667 44.24 14.6C44.24 13.7467 44.4133 12.96 44.76 12.24C45.1333 11.52 45.64 10.8933 46.28 10.36C46.9467 9.8 47.72 9.38667 48.6 9.12C49.5067 8.82667 50.48 8.68 51.52 8.68C52.5067 8.68 53.48 8.81333 54.44 9.08C55.4 9.34667 56.2933 9.73333 57.12 10.24C57.9467 10.7467 58.6533 11.3467 59.24 12.04L57.4 14.04C56.8933 13.5067 56.3333 13.0267 55.72 12.6C55.1067 12.1733 54.4533 11.84 53.76 11.6C53.0933 11.36 52.4 11.24 51.68 11.24C51.04 11.24 50.44 11.32 49.88 11.48C49.3467 11.64 48.88 11.8667 48.48 12.16C48.1067 12.4267 47.8133 12.76 47.6 13.16C47.4133 13.56 47.32 14 47.32 14.48C47.32 14.88 47.4 15.24 47.56 15.56C47.72 15.88 47.9467 16.16 48.24 16.4C48.6133 16.6933 49.1333 16.9733 49.8 17.24C50.4933 17.48 51.3467 17.7333 52.36 18C53.5333 18.32 54.52 18.6533 55.32 19C56.1467 19.32 56.8267 19.7067 57.36 20.16C58.08 20.6933 58.5867 21.3067 58.88 22C59.2 22.6933 59.36 23.48 59.36 24.36C59.36 25.5333 59.0267 26.5733 58.36 27.48C57.72 28.3867 56.8267 29.1067 55.68 29.64C54.5333 30.1467 53.2267 30.4 51.76 30.4ZM73.2606 30.4C71.1806 30.4 69.3273 29.9467 67.7006 29.04C66.1006 28.1333 64.8473 26.8667 63.9406 25.24C63.034 23.6133 62.5806 21.7467 62.5806 19.64C62.5806 18.0133 62.834 16.5467 63.3406 15.24C63.8473 13.9067 64.554 12.7467 65.4606 11.76C66.394 10.7733 67.5006 10.0133 68.7806 9.48C70.0606 8.92 71.4473 8.64 72.9406 8.64C74.354 8.64 75.634 8.89333 76.7806 9.4C77.954 9.90667 78.954 10.6133 79.7806 11.52C80.634 12.4 81.274 13.4533 81.7006 14.68C82.1273 15.9067 82.314 17.2533 82.2606 18.72L82.2206 20.12H64.8206L64.3806 17.6H79.9406L79.2206 18.28V17.32C79.1673 16.36 78.8873 15.44 78.3806 14.56C77.874 13.6533 77.154 12.92 76.2206 12.36C75.314 11.8 74.2206 11.52 72.9406 11.52C71.4473 11.52 70.154 11.8267 69.0606 12.44C67.9673 13.0267 67.1273 13.9067 66.5406 15.08C65.954 16.2533 65.6606 17.7067 65.6606 19.44C65.6606 21.0933 65.9806 22.5333 66.6206 23.76C67.2606 24.96 68.1673 25.8933 69.3406 26.56C70.5406 27.2267 71.9806 27.56 73.6606 27.56C74.6473 27.56 75.6206 27.4 76.5806 27.08C77.5673 26.7333 78.6473 26.0667 79.8206 25.08L81.3806 27.24C80.7673 27.8533 80.034 28.4 79.1806 28.88C78.3273 29.3333 77.394 29.7067 76.3806 30C75.3673 30.2667 74.3273 30.4 73.2606 30.4ZM86.5216 30V9.12H89.4816L89.6016 13.48L89.1216 13.68C89.3882 12.7733 89.9082 11.9467 90.6816 11.2C91.4549 10.4533 92.3749 9.85333 93.4416 9.4C94.5349 8.92 95.6549 8.68 96.8016 8.68C98.3482 8.68 99.6416 8.98666 100.682 9.6C101.722 10.2133 102.508 11.16 103.042 12.44C103.575 13.72 103.842 15.3467 103.842 17.32V30H100.802V17.48C100.802 16.0933 100.615 14.96 100.242 14.08C99.8949 13.1733 99.3482 12.5067 98.6016 12.08C97.8549 11.6533 96.9349 11.4533 95.8416 11.48C94.9349 11.48 94.0949 11.64 93.3216 11.96C92.5482 12.2533 91.8816 12.6667 91.3216 13.2C90.7616 13.7333 90.3216 14.3467 90.0016 15.04C89.6816 15.7333 89.5216 16.48 89.5216 17.28V30H88.0416C87.8549 30 87.6416 30 87.4016 30C87.1616 30 86.8682 30 86.5216 30ZM112.448 30V3.64H115.448V30H112.448ZM107.728 12V9.12H120.728V12H107.728ZM125.212 30V9.12H128.212V30H125.212ZM126.692 4.6C125.946 4.6 125.372 4.41333 124.972 4.04C124.599 3.64 124.412 3.10667 124.412 2.44C124.412 1.77333 124.612 1.24 125.012 0.839999C125.412 0.439999 125.972 0.239999 126.692 0.239999C127.412 0.239999 127.972 0.439999 128.372 0.839999C128.772 1.21333 128.972 1.74667 128.972 2.44C128.972 3.08 128.772 3.6 128.372 4C127.972 4.4 127.412 4.6 126.692 4.6ZM134.764 30V9.12H137.724L137.844 13.48L137.364 13.68C137.63 12.7733 138.15 11.9467 138.924 11.2C139.697 10.4533 140.617 9.85333 141.684 9.4C142.777 8.92 143.897 8.68 145.044 8.68C146.59 8.68 147.884 8.98666 148.924 9.6C149.964 10.2133 150.75 11.16 151.284 12.44C151.817 13.72 152.084 15.3467 152.084 17.32V30H149.044V17.48C149.044 16.0933 148.857 14.96 148.484 14.08C148.137 13.1733 147.59 12.5067 146.844 12.08C146.097 11.6533 145.177 11.4533 144.084 11.48C143.177 11.48 142.337 11.64 141.564 11.96C140.79 12.2533 140.124 12.6667 139.564 13.2C139.004 13.7333 138.564 14.3467 138.244 15.04C137.924 15.7333 137.764 16.48 137.764 17.28V30H136.284C136.097 30 135.884 30 135.644 30C135.404 30 135.11 30 134.764 30ZM167.011 30.4C164.931 30.4 163.077 29.9467 161.451 29.04C159.851 28.1333 158.597 26.8667 157.691 25.24C156.784 23.6133 156.331 21.7467 156.331 19.64C156.331 18.0133 156.584 16.5467 157.091 15.24C157.597 13.9067 158.304 12.7467 159.211 11.76C160.144 10.7733 161.251 10.0133 162.531 9.48C163.811 8.92 165.197 8.64 166.691 8.64C168.104 8.64 169.384 8.89333 170.531 9.4C171.704 9.90667 172.704 10.6133 173.531 11.52C174.384 12.4 175.024 13.4533 175.451 14.68C175.877 15.9067 176.064 17.2533 176.011 18.72L175.971 20.12H158.571L158.131 17.6H173.691L172.971 18.28V17.32C172.917 16.36 172.637 15.44 172.131 14.56C171.624 13.6533 170.904 12.92 169.971 12.36C169.064 11.8 167.971 11.52 166.691 11.52C165.197 11.52 163.904 11.8267 162.811 12.44C161.717 13.0267 160.877 13.9067 160.291 15.08C159.704 16.2533 159.411 17.7067 159.411 19.44C159.411 21.0933 159.731 22.5333 160.371 23.76C161.011 24.96 161.917 25.8933 163.091 26.56C164.291 27.2267 165.731 27.56 167.411 27.56C168.397 27.56 169.371 27.4 170.331 27.08C171.317 26.7333 172.397 26.0667 173.571 25.08L175.131 27.24C174.517 27.8533 173.784 28.4 172.931 28.88C172.077 29.3333 171.144 29.7067 170.131 30C169.117 30.2667 168.077 30.4 167.011 30.4ZM180.352 30V0.4H183.352V30H180.352Z" fill="#1C1C1F"/>
<path d="M192.32 30V5.88C192.32 4.84 192.547 3.92 193 3.12C193.453 2.32 194.093 1.69333 194.92 1.24C195.773 0.759998 196.76 0.519998 197.88 0.519998C198.733 0.519998 199.493 0.679998 200.16 0.999999C200.853 1.29333 201.427 1.70667 201.88 2.24L200.84 4.6C200.413 4.14667 199.947 3.82667 199.44 3.64C198.96 3.42666 198.493 3.32 198.04 3.32C197.453 3.32 196.96 3.42666 196.56 3.64C196.16 3.82667 195.853 4.12 195.64 4.52C195.453 4.89333 195.36 5.34667 195.36 5.88V30H193.96C193.667 30 193.387 30 193.12 30C192.853 30 192.587 30 192.32 30ZM188.6 12.08V9.28H200.68V12.08H188.6ZM213.496 30.4C211.416 30.4 209.563 29.9333 207.936 29C206.336 28.0667 205.069 26.7733 204.136 25.12C203.229 23.4667 202.776 21.5867 202.776 19.48C202.776 17.4 203.229 15.5467 204.136 13.92C205.069 12.2933 206.336 11.0133 207.936 10.08C209.563 9.14666 211.416 8.68 213.496 8.68C215.549 8.68 217.376 9.14666 218.976 10.08C220.603 11.0133 221.869 12.2933 222.776 13.92C223.709 15.5467 224.176 17.4 224.176 19.48C224.176 21.5867 223.709 23.4667 222.776 25.12C221.869 26.7733 220.603 28.0667 218.976 29C217.376 29.9333 215.549 30.4 213.496 30.4ZM213.496 27.56C214.963 27.56 216.269 27.2133 217.416 26.52C218.563 25.8 219.456 24.84 220.096 23.64C220.736 22.4133 221.056 21.0267 221.056 19.48C221.056 17.9333 220.736 16.56 220.096 15.36C219.456 14.16 218.563 13.2267 217.416 12.56C216.269 11.8667 214.963 11.52 213.496 11.52C212.029 11.52 210.709 11.8667 209.536 12.56C208.389 13.2267 207.483 14.1733 206.816 15.4C206.176 16.6 205.869 17.96 205.896 19.48C205.869 21.0267 206.176 22.4133 206.816 23.64C207.483 24.84 208.389 25.8 209.536 26.52C210.709 27.2133 212.029 27.56 213.496 27.56ZM241.972 30L234.732 20.68L234.372 20.24L225.692 9.12H229.492L236.612 18.28L237.012 18.8L245.732 30H241.972ZM225.532 30L234.052 19L235.852 21.16L229.132 30H225.532ZM237.212 19.76L235.492 17.64L241.572 9.12H245.212L237.212 19.76Z" fill="#FF7300"/>
<path d="M15.5165 9.82849C16.0115 10.1636 16.0115 10.9163 15.5165 11.2514L1.26506 20.9016C0.720857 21.27 0 20.8646 0 20.19V0.889896C0 0.215331 0.720857 -0.190075 1.26506 0.178402L15.5165 9.82849Z" fill="#1C1C1F"/>
<path d="M0 24.0396C0 23.752 0.140085 23.484 0.372271 23.3275L34.7338 0.138622C35.2781 -0.228666 35.9978 0.176868 35.9978 0.850817V12.734C35.9978 13.0213 35.8577 13.2893 35.6256 13.446L7.50303 32.4299C7.23152 32.6132 6.88144 32.6129 6.61016 32.4293L0.371207 28.2049C0.139635 28.048 0 27.7804 0 27.4933V24.0396Z" fill="#FF7300"/>
<path d="M9.44602 34.3993C8.94882 34.0644 8.94902 33.3088 9.44639 32.9739L34.7366 15.9554C35.2811 15.5891 35.9998 15.9947 35.9998 16.6681V27.5971C35.9998 27.8851 35.8593 28.1535 35.6265 28.31L18.4461 39.8638C18.1753 40.046 17.8266 40.0458 17.556 39.8633L9.44602 34.3993Z" fill="#FF7300"/>
</svg>
