<svg id="Layer_1" data-name="Layer 1" xmlns="http://www.w3.org/2000/svg" viewBox="0 300 800 200"><defs><style>.cls-1{fill:#1b1b1b;}.cls-2{fill:#6ccbb2;}</style></defs><path class="cls-1" d="M157.58,443.18a39.3,39.3,0,0,1-19.31-4.65,33.58,33.58,0,0,1-13.21-13.06,38.65,38.65,0,0,1-4.8-19.46,41.61,41.61,0,0,1,4.65-19.9A34.38,34.38,0,0,1,138,372.61a38.38,38.38,0,0,1,19.75-4.94,37,37,0,0,1,18.73,4.65A32.63,32.63,0,0,1,189.1,385.1,34.9,34.9,0,0,1,193.74,403c0,1.06,0,2.18-.14,3.34s0,2.37-.15,3.63H138.71q.57,8.42,5.81,13.21a18.71,18.71,0,0,0,12.92,4.79,17,17,0,0,0,9.44-2.46,16.15,16.15,0,0,0,5.81-6.68h18.88a34.3,34.3,0,0,1-6.83,12.48A32.82,32.82,0,0,1,173.12,440,36.24,36.24,0,0,1,157.58,443.18Zm.15-60.41a19.55,19.55,0,0,0-12,3.92q-5.24,3.78-6.68,11.62h35.87A15.71,15.71,0,0,0,169.64,387,17.45,17.45,0,0,0,157.73,382.77Z"/><path class="cls-1" d="M204.66,441.44v-72h16.41l1.46,12.2a25.37,25.37,0,0,1,9.58-10.16,28.84,28.84,0,0,1,15-3.78q13.35,0,20.76,8.42t7.41,24.69v40.66H256.65V402.52q0-9.28-3.77-14.23t-11.77-4.94a16.8,16.8,0,0,0-12.92,5.52q-4.94,5.52-4.94,15.39v37.18Z"/><path class="cls-1" d="M308.41,441.44l-26.43-72h19.46l18.29,54.46L338,369.41h19.46l-26.57,72Z"/><path class="cls-1" d="M378.22,358.23a12,12,0,0,1-8.42-3.05,10.19,10.19,0,0,1-3.2-7.7,9.75,9.75,0,0,1,3.2-7.55,12,12,0,0,1,8.42-3.05,11.51,11.51,0,0,1,8.28,3.05,9.54,9.54,0,0,1,3.34,7.55,10,10,0,0,1-3.34,7.7A11.51,11.51,0,0,1,378.22,358.23Zm-9.29,83.21v-72h18.59v72Z"/><path class="cls-1" d="M437.61,441.44q-11.33,0-18.15-5.52t-6.82-19.6V385H400.29V369.41h12.35l2.17-19.31h16.41v19.31h19.46V385H431.22v31.51q0,5.24,2.18,7.26t7.84,1.89h9v15.83Z"/><path class="cls-1" d="M496.09,443.18a39.3,39.3,0,0,1-19.31-4.65,33.58,33.58,0,0,1-13.21-13.06,38.65,38.65,0,0,1-4.8-19.46,41.61,41.61,0,0,1,4.65-19.9,34.38,34.38,0,0,1,13.07-13.5,38.38,38.38,0,0,1,19.75-4.94A37,37,0,0,1,515,372.32,32.6,32.6,0,0,1,527.6,385.1,34.81,34.81,0,0,1,532.25,403c0,1.06,0,2.18-.14,3.34s-.05,2.37-.15,3.63H477.22q.57,8.42,5.81,13.21A18.71,18.71,0,0,0,496,427.93a17,17,0,0,0,9.44-2.46,16.15,16.15,0,0,0,5.81-6.68h18.87a34.27,34.27,0,0,1-6.82,12.48A32.82,32.82,0,0,1,511.63,440,36.24,36.24,0,0,1,496.09,443.18Zm.15-60.41a19.55,19.55,0,0,0-12.05,3.92q-5.24,3.78-6.68,11.62h35.86A15.7,15.7,0,0,0,508.15,387,17.45,17.45,0,0,0,496.24,382.77Z"/><path class="cls-2" d="M679.74,394.35v16.08H638.42l29.21,29.22L656.26,451,627.05,421.8v41.32H611V341.66h16.08V383l29.21-29.22,11.37,11.37-29.21,29.22Z"/><path class="cls-2" d="M568.21,366.08l36.33,36.32-36.33,36.31-11.27-11.27,25-25-25-25Z"/></svg>
