<?xml version="1.0" encoding="UTF-8"?>
<svg xmlns="http://www.w3.org/2000/svg" xmlns:xlink="http://www.w3.org/1999/xlink" width="270px" height="96px" viewBox="0 0 270 96" version="1.1">
<g id="surface1">
<path style=" stroke:none;fill-rule:nonzero;fill:rgb(0%,65.490198%,78.823531%);fill-opacity:1;" d="M 51.964844 64.34375 L 46.101562 64.34375 L 46.101562 38.273438 L 37.023438 42.421875 L 34.820312 37.390625 L 51.589844 29.640625 L 51.828125 29.640625 Z M 54.132812 12.304688 C 55.550781 13.695312 56.328125 15.621094 56.265625 17.609375 C 56.328125 19.597656 55.550781 21.523438 54.132812 22.910156 C 52.703125 24.300781 50.769531 25.050781 48.777344 24.984375 C 46.789062 25.050781 44.855469 24.300781 43.425781 22.910156 C 42.058594 21.496094 41.335938 19.578125 41.425781 17.609375 C 41.335938 15.640625 42.058594 13.722656 43.425781 12.304688 C 44.851562 10.90625 46.785156 10.148438 48.777344 10.199219 C 50.773438 10.148438 52.703125 10.90625 54.132812 12.304688 Z M 51.015625 19.851562 C 51.617188 19.265625 51.9375 18.449219 51.894531 17.609375 C 51.933594 16.765625 51.621094 15.945312 51.027344 15.34375 C 50.433594 14.742188 49.621094 14.417969 48.777344 14.449219 C 47.9375 14.417969 47.121094 14.742188 46.53125 15.34375 C 45.9375 15.945312 45.625 16.765625 45.660156 17.609375 C 45.621094 18.449219 45.941406 19.265625 46.542969 19.851562 C 47.136719 20.441406 47.945312 20.761719 48.777344 20.734375 C 49.613281 20.761719 50.421875 20.441406 51.015625 19.851562 Z M 51.015625 19.851562 "/>
<path style=" stroke:none;fill-rule:nonzero;fill:rgb(0%,65.490198%,78.823531%);fill-opacity:1;" d="M 78.695312 34.941406 C 74.296875 34.363281 70.140625 37.09375 68.90625 41.367188 C 68.5 43.21875 68.332031 45.113281 68.394531 47.007812 L 68.394531 64.34375 L 62.433594 64.34375 L 62.433594 45.75 C 62.386719 44.089844 62.511719 42.425781 62.804688 40.789062 C 63.40625 37.414062 65.257812 34.390625 67.988281 32.324219 C 71.125 30.148438 74.886719 29.074219 78.695312 29.265625 C 82.46875 29.089844 86.195312 30.167969 89.300781 32.324219 C 91.992188 34.40625 93.808594 37.429688 94.382812 40.789062 C 94.691406 42.425781 94.828125 44.085938 94.789062 45.75 L 94.789062 64.34375 L 88.859375 64.34375 L 88.859375 47.007812 C 88.917969 45.113281 88.734375 43.21875 88.316406 41.367188 C 87.105469 37.15625 83.039062 34.4375 78.695312 34.941406 Z M 78.695312 34.941406 "/>
<path style=" stroke:none;fill-rule:nonzero;fill:rgb(0%,65.490198%,78.823531%);fill-opacity:1;" d="M 121.421875 59.039062 C 125.8125 59.605469 129.964844 56.882812 131.210938 52.617188 C 131.613281 50.777344 131.785156 48.890625 131.71875 47.007812 L 131.71875 29.640625 L 137.582031 29.640625 L 137.582031 48.234375 C 137.628906 49.90625 137.503906 51.582031 137.207031 53.230469 C 136.597656 56.59375 134.75 59.601562 132.023438 61.65625 C 128.921875 63.824219 125.199219 64.910156 121.421875 64.75 C 117.644531 64.917969 113.914062 63.828125 110.816406 61.65625 C 108.15625 59.574219 106.367188 56.566406 105.800781 53.230469 C 105.492188 51.582031 105.355469 49.90625 105.394531 48.234375 L 105.394531 29.640625 L 111.257812 29.640625 L 111.257812 47.007812 C 111.199219 48.894531 111.382812 50.777344 111.796875 52.617188 C 113.011719 56.828125 117.078125 59.546875 121.421875 59.039062 Z M 121.421875 59.039062 "/>
<path style=" stroke:none;fill-rule:nonzero;fill:rgb(0%,65.490198%,78.823531%);fill-opacity:1;" d="M 161.296875 64.34375 L 155.402344 64.34375 L 155.402344 38.273438 L 146.457031 42.421875 L 144.121094 37.390625 L 161.0625 29.605469 L 161.332031 29.605469 Z M 163.398438 12.304688 C 164.84375 13.683594 165.632812 15.613281 165.566406 17.609375 C 165.632812 19.605469 164.84375 21.535156 163.398438 22.910156 C 160.363281 25.675781 155.730469 25.675781 152.691406 22.910156 C 151.273438 21.523438 150.496094 19.597656 150.558594 17.609375 C 150.507812 15.613281 151.292969 13.691406 152.726562 12.304688 C 155.738281 9.511719 160.386719 9.511719 163.398438 12.304688 Z M 160.351562 19.851562 C 160.9375 19.257812 161.253906 18.445312 161.230469 17.609375 C 161.25 16.761719 160.933594 15.945312 160.351562 15.332031 C 159.738281 14.746094 158.921875 14.429688 158.078125 14.449219 C 157.246094 14.421875 156.4375 14.742188 155.84375 15.332031 C 155.261719 15.945312 154.945312 16.761719 154.960938 17.609375 C 154.933594 18.445312 155.253906 19.257812 155.84375 19.851562 C 156.433594 20.445312 157.246094 20.765625 158.078125 20.734375 C 158.921875 20.753906 159.738281 20.4375 160.351562 19.851562 Z M 160.351562 19.851562 "/>
<path style=" stroke:none;fill-rule:nonzero;fill:rgb(0%,65.490198%,78.823531%);fill-opacity:1;" d="M 178.070312 50.984375 L 178.070312 35.148438 L 166.515625 35.148438 L 166.515625 29.640625 L 197.449219 29.640625 L 197.449219 35.148438 L 183.898438 35.148438 L 183.898438 49.558594 C 183.832031 51.351562 184.074219 53.144531 184.609375 54.859375 C 185.691406 57.648438 188.300781 59.039062 192.433594 59.039062 C 194.195312 59.046875 195.949219 58.828125 197.652344 58.394531 L 198.972656 63.867188 C 196.675781 64.472656 194.304688 64.769531 191.925781 64.75 C 185.152344 64.75 180.824219 62.144531 178.949219 56.933594 C 178.324219 55.015625 178.023438 53.003906 178.070312 50.984375 Z M 178.070312 50.984375 "/>
<path style=" stroke:none;fill-rule:nonzero;fill:rgb(0%,65.490198%,78.823531%);fill-opacity:1;" d="M 205.34375 58.835938 L 220.996094 58.835938 C 223 59.035156 225.015625 58.671875 226.824219 57.785156 C 227.867188 56.972656 228.449219 55.703125 228.382812 54.382812 C 228.523438 52.832031 227.722656 51.34375 226.351562 50.613281 C 224.582031 49.929688 222.683594 49.636719 220.792969 49.761719 L 217.609375 49.761719 C 214.957031 49.90625 212.304688 49.457031 209.851562 48.4375 C 206.671875 46.910156 204.730469 43.605469 204.9375 40.074219 C 204.71875 36.394531 206.703125 32.933594 209.984375 31.273438 C 212.3125 30.21875 214.855469 29.726562 217.40625 29.84375 L 233.09375 29.84375 L 233.09375 35.148438 L 217.03125 35.148438 C 215.457031 35.015625 213.882812 35.386719 212.527344 36.199219 C 211.4375 36.972656 210.84375 38.269531 210.96875 39.597656 C 210.855469 41.113281 211.636719 42.550781 212.96875 43.269531 C 214.417969 43.945312 216.011719 44.261719 217.609375 44.1875 L 220.996094 44.1875 C 223.777344 44.054688 226.558594 44.492188 229.164062 45.480469 C 232.582031 46.980469 234.722656 50.441406 234.550781 54.179688 C 234.625 57.023438 233.371094 59.738281 231.160156 61.523438 C 228.207031 63.625 224.609375 64.621094 220.996094 64.34375 L 205.34375 64.34375 Z M 205.34375 58.835938 "/>
<path style=" stroke:none;fill-rule:nonzero;fill:rgb(0%,65.490198%,78.823531%);fill-opacity:1;" d="M 43.796875 80.828125 C 43.898438 82.160156 43.472656 83.476562 42.613281 84.5 C 41.734375 85.417969 40.488281 85.890625 39.222656 85.789062 C 37.960938 85.882812 36.722656 85.410156 35.835938 84.5 C 34.988281 83.472656 34.566406 82.15625 34.652344 80.828125 C 34.554688 79.496094 34.980469 78.179688 35.835938 77.15625 C 36.730469 76.257812 37.960938 75.789062 39.222656 75.867188 C 40.484375 75.800781 41.714844 76.269531 42.613281 77.15625 C 43.460938 78.183594 43.882812 79.496094 43.796875 80.828125 Z M 36.785156 80.828125 C 36.722656 81.6875 36.9375 82.546875 37.394531 83.273438 C 37.832031 83.835938 38.515625 84.140625 39.222656 84.089844 C 40.851562 84.089844 41.664062 82.957031 41.664062 80.691406 C 41.664062 78.425781 40.851562 77.292969 39.222656 77.292969 C 38.519531 77.261719 37.84375 77.5625 37.394531 78.109375 C 36.882812 78.917969 36.667969 79.878906 36.785156 80.828125 Z M 36.785156 80.828125 "/>
<path style=" stroke:none;fill-rule:nonzero;fill:rgb(0%,65.490198%,78.823531%);fill-opacity:1;" d="M 52.4375 79.027344 C 52.585938 79.964844 52.269531 80.914062 51.589844 81.574219 C 50.800781 82.167969 49.828125 82.457031 48.847656 82.390625 L 47.832031 82.390625 L 47.832031 85.789062 L 45.796875 85.789062 L 45.796875 76.035156 L 48.878906 76.035156 C 49.820312 75.964844 50.757812 76.230469 51.523438 76.78125 C 52.15625 77.347656 52.496094 78.175781 52.4375 79.027344 Z M 47.832031 80.554688 L 48.507812 80.554688 C 49 80.585938 49.488281 80.453125 49.898438 80.183594 C 50.230469 79.925781 50.410156 79.515625 50.371094 79.09375 C 50.359375 78.753906 50.226562 78.429688 50 78.175781 C 49.648438 77.917969 49.214844 77.796875 48.777344 77.835938 L 47.832031 77.835938 Z M 47.832031 80.554688 "/>
<path style=" stroke:none;fill-rule:nonzero;fill:rgb(0%,65.490198%,78.823531%);fill-opacity:1;" d="M 59.789062 85.652344 L 54.269531 85.652344 L 54.269531 76.035156 L 59.789062 76.035156 L 59.789062 77.699219 L 56.402344 77.699219 L 56.402344 79.808594 L 59.789062 79.808594 L 59.789062 81.574219 L 56.402344 81.574219 L 56.402344 84.058594 L 59.789062 84.058594 Z M 59.789062 85.652344 "/>
<path style=" stroke:none;fill-rule:nonzero;fill:rgb(0%,65.490198%,78.823531%);fill-opacity:1;" d="M 70.328125 85.652344 L 67.71875 85.652344 L 63.550781 78.378906 C 63.550781 79.671875 63.550781 80.589844 63.550781 81.132812 L 63.550781 85.652344 L 61.753906 85.652344 L 61.753906 76.035156 L 64.332031 76.035156 L 68.53125 83.242188 C 68.53125 81.996094 68.53125 81.109375 68.53125 80.589844 L 68.53125 76.035156 L 70.359375 76.035156 Z M 70.328125 85.652344 "/>
<path style=" stroke:none;fill-rule:nonzero;fill:rgb(0%,65.490198%,78.823531%);fill-opacity:1;" d="M 82.085938 83.003906 C 82.117188 83.796875 81.761719 84.558594 81.136719 85.042969 C 80.378906 85.589844 79.457031 85.855469 78.527344 85.789062 C 77.589844 85.820312 76.660156 85.621094 75.816406 85.210938 L 75.816406 83.308594 C 76.347656 83.570312 76.902344 83.773438 77.476562 83.921875 C 77.871094 84.050781 78.28125 84.117188 78.695312 84.125 C 79.066406 84.136719 79.429688 84.042969 79.746094 83.851562 C 79.984375 83.667969 80.113281 83.371094 80.085938 83.070312 C 80.144531 82.917969 80.144531 82.746094 80.085938 82.59375 C 79.972656 82.414062 79.824219 82.265625 79.644531 82.152344 L 78.050781 81.574219 C 77.578125 81.367188 77.132812 81.09375 76.730469 80.761719 C 76.101562 80.257812 75.738281 79.492188 75.75 78.6875 C 75.714844 77.917969 76.042969 77.175781 76.628906 76.679688 C 77.320312 76.164062 78.175781 75.910156 79.035156 75.96875 C 79.515625 75.957031 79.992188 76.015625 80.457031 76.136719 C 80.949219 76.257812 81.425781 76.429688 81.882812 76.648438 L 81.203125 78.210938 L 79.949219 77.769531 L 78.96875 77.769531 C 78.636719 77.730469 78.308594 77.828125 78.050781 78.039062 C 77.851562 78.207031 77.738281 78.457031 77.746094 78.71875 C 77.691406 78.875 77.691406 79.042969 77.746094 79.195312 C 77.847656 79.363281 77.984375 79.503906 78.152344 79.605469 L 79.441406 80.285156 C 80.144531 80.566406 80.769531 81.007812 81.269531 81.574219 C 81.699219 81.941406 81.984375 82.449219 82.085938 83.003906 Z M 82.085938 83.003906 "/>
<path style=" stroke:none;fill-rule:nonzero;fill:rgb(0%,65.490198%,78.823531%);fill-opacity:1;" d="M 92.25 80.828125 C 92.332031 82.15625 91.910156 83.472656 91.0625 84.5 C 90.179688 85.410156 88.9375 85.882812 87.675781 85.789062 C 86.410156 85.882812 85.171875 85.410156 84.285156 84.5 C 83.441406 83.472656 83.015625 82.15625 83.101562 80.828125 C 83.003906 79.496094 83.429688 78.179688 84.285156 77.15625 C 85.179688 76.257812 86.414062 75.789062 87.675781 75.867188 C 88.9375 75.785156 90.171875 76.253906 91.0625 77.15625 C 91.921875 78.175781 92.347656 79.496094 92.25 80.828125 Z M 85.234375 80.828125 C 85.171875 81.6875 85.386719 82.546875 85.84375 83.273438 C 86.28125 83.835938 86.96875 84.140625 87.675781 84.089844 C 89.300781 84.089844 90.113281 82.957031 90.113281 80.691406 C 90.113281 78.425781 89.300781 77.292969 87.675781 77.292969 C 86.96875 77.242188 86.28125 77.550781 85.84375 78.109375 C 85.414062 78.945312 85.28125 79.90625 85.472656 80.828125 Z M 85.234375 80.828125 "/>
<path style=" stroke:none;fill-rule:nonzero;fill:rgb(0%,65.490198%,78.823531%);fill-opacity:1;" d="M 102.210938 76.035156 L 102.210938 82.253906 C 102.222656 82.910156 102.058594 83.554688 101.734375 84.125 C 101.398438 84.667969 100.917969 85.101562 100.347656 85.382812 C 99.671875 85.667969 98.945312 85.804688 98.210938 85.789062 C 97.164062 85.859375 96.132812 85.519531 95.332031 84.839844 C 94.632812 84.152344 94.261719 83.199219 94.316406 82.222656 L 94.316406 76.035156 L 96.347656 76.035156 L 96.347656 81.914062 C 96.292969 82.496094 96.449219 83.074219 96.789062 83.546875 C 97.636719 84.273438 98.886719 84.273438 99.734375 83.546875 C 100.0625 83.066406 100.214844 82.492188 100.175781 81.914062 L 100.175781 76.035156 Z M 102.210938 76.035156 "/>
<path style=" stroke:none;fill-rule:nonzero;fill:rgb(0%,65.490198%,78.823531%);fill-opacity:1;" d="M 106.582031 81.949219 L 106.582031 85.652344 L 104.546875 85.652344 L 104.546875 76.035156 L 107.359375 76.035156 C 108.382812 75.957031 109.402344 76.207031 110.273438 76.75 C 111.28125 77.703125 111.480469 79.238281 110.746094 80.417969 C 110.394531 80.867188 109.941406 81.226562 109.425781 81.472656 C 110.847656 83.648438 111.796875 85.042969 112.238281 85.652344 L 109.96875 85.652344 L 107.699219 81.949219 Z M 106.582031 80.316406 L 107.257812 80.316406 C 107.753906 80.34375 108.25 80.226562 108.679688 79.976562 C 109.003906 79.742188 109.183594 79.359375 109.15625 78.957031 C 109.179688 78.570312 109 78.195312 108.679688 77.972656 C 108.222656 77.773438 107.722656 77.683594 107.222656 77.699219 L 106.582031 77.699219 Z M 106.582031 80.316406 "/>
<path style=" stroke:none;fill-rule:nonzero;fill:rgb(0%,65.490198%,78.823531%);fill-opacity:1;" d="M 117.523438 77.597656 C 116.832031 77.5625 116.167969 77.882812 115.761719 78.449219 C 115.289062 79.160156 115.0625 80.007812 115.117188 80.863281 C 115.117188 83.035156 115.929688 84.089844 117.523438 84.089844 C 118.371094 84.054688 119.207031 83.882812 119.996094 83.582031 L 119.996094 85.3125 C 119.152344 85.632812 118.257812 85.792969 117.355469 85.789062 C 116.148438 85.875 114.964844 85.414062 114.136719 84.53125 C 113.328125 83.488281 112.929688 82.179688 113.019531 80.863281 C 113.007812 79.949219 113.195312 79.046875 113.558594 78.210938 C 113.902344 77.484375 114.457031 76.878906 115.152344 76.476562 C 115.875 76.066406 116.695312 75.867188 117.523438 75.898438 C 118.503906 75.894531 119.46875 76.128906 120.335938 76.578125 L 119.691406 78.175781 L 118.609375 77.734375 C 118.257812 77.625 117.890625 77.578125 117.523438 77.597656 Z M 117.523438 77.597656 "/>
<path style=" stroke:none;fill-rule:nonzero;fill:rgb(0%,65.490198%,78.823531%);fill-opacity:1;" d="M 127.554688 85.652344 L 122.03125 85.652344 L 122.03125 76.035156 L 127.554688 76.035156 L 127.554688 77.699219 L 124.164062 77.699219 L 124.164062 79.808594 L 127.554688 79.808594 L 127.554688 81.574219 L 124.164062 81.574219 L 124.164062 84.058594 L 127.554688 84.058594 Z M 127.554688 85.652344 "/>
<path style=" stroke:none;fill-rule:nonzero;fill:rgb(0%,65.490198%,78.823531%);fill-opacity:1;" d="M 141.78125 80.828125 C 141.878906 82.152344 141.464844 83.464844 140.632812 84.5 C 138.691406 86.199219 135.796875 86.199219 133.855469 84.5 C 133.007812 83.472656 132.582031 82.15625 132.667969 80.828125 C 132.574219 79.496094 133 78.179688 133.855469 77.15625 C 134.753906 76.269531 135.984375 75.800781 137.242188 75.867188 C 138.503906 75.789062 139.738281 76.257812 140.632812 77.15625 C 141.464844 78.1875 141.878906 79.5 141.78125 80.828125 Z M 134.769531 80.828125 C 134.707031 81.6875 134.921875 82.546875 135.378906 83.273438 C 135.816406 83.835938 136.5 84.140625 137.207031 84.089844 C 138.835938 84.089844 139.648438 82.957031 139.648438 80.691406 C 139.648438 78.515625 138.835938 77.292969 137.242188 77.292969 C 136.535156 77.242188 135.851562 77.550781 135.414062 78.109375 C 134.867188 78.902344 134.640625 79.871094 134.769531 80.828125 Z M 134.769531 80.828125 "/>
<path style=" stroke:none;fill-rule:nonzero;fill:rgb(0%,65.490198%,78.823531%);fill-opacity:1;" d="M 143.78125 76.035156 L 146.796875 76.035156 C 147.8125 75.949219 148.835938 76.152344 149.746094 76.613281 C 150.367188 77.003906 150.722656 77.714844 150.660156 78.449219 C 150.675781 78.949219 150.546875 79.445312 150.285156 79.875 C 150.035156 80.242188 149.640625 80.488281 149.203125 80.554688 C 149.722656 80.632812 150.191406 80.898438 150.523438 81.304688 C 150.8125 81.746094 150.957031 82.269531 150.929688 82.800781 C 150.953125 83.660156 150.546875 84.476562 149.847656 84.972656 C 149.078125 85.488281 148.160156 85.738281 147.238281 85.6875 L 143.78125 85.6875 Z M 145.816406 79.84375 L 147 79.84375 C 147.425781 79.871094 147.847656 79.773438 148.21875 79.570312 C 148.484375 79.371094 148.625 79.050781 148.59375 78.71875 C 148.605469 78.40625 148.449219 78.109375 148.1875 77.9375 C 147.785156 77.746094 147.339844 77.664062 146.898438 77.699219 L 145.816406 77.699219 Z M 145.816406 81.472656 L 145.816406 83.988281 L 147.171875 83.988281 C 147.601562 84.011719 148.03125 83.890625 148.390625 83.648438 C 148.675781 83.40625 148.828125 83.039062 148.796875 82.664062 C 148.796875 81.847656 148.21875 81.472656 147.101562 81.472656 Z M 145.816406 81.472656 "/>
<path style=" stroke:none;fill-rule:nonzero;fill:rgb(0%,65.490198%,78.823531%);fill-opacity:1;" d="M 158.519531 83.003906 C 158.554688 83.796875 158.199219 84.558594 157.570312 85.042969 C 156.816406 85.589844 155.890625 85.855469 154.960938 85.789062 C 154.027344 85.820312 153.097656 85.621094 152.253906 85.210938 L 152.253906 83.308594 C 152.773438 83.570312 153.316406 83.773438 153.878906 83.921875 C 154.285156 84.046875 154.707031 84.117188 155.132812 84.125 C 155.492188 84.140625 155.847656 84.046875 156.148438 83.851562 C 156.394531 83.671875 156.535156 83.378906 156.519531 83.070312 C 156.566406 82.914062 156.566406 82.75 156.519531 82.59375 C 156.398438 82.414062 156.234375 82.265625 156.046875 82.152344 L 154.65625 81.574219 C 154.171875 81.382812 153.726562 81.105469 153.335938 80.761719 C 152.707031 80.257812 152.34375 79.492188 152.355469 78.6875 C 152.320312 77.917969 152.648438 77.175781 153.234375 76.679688 C 153.914062 76.167969 154.757812 75.914062 155.605469 75.96875 C 156.085938 75.953125 156.566406 76.007812 157.03125 76.136719 C 157.523438 76.246094 158 76.417969 158.453125 76.648438 L 157.808594 78.210938 L 156.621094 77.699219 C 156.296875 77.664062 155.96875 77.664062 155.640625 77.699219 C 155.320312 77.667969 155.003906 77.765625 154.757812 77.972656 C 154.558594 78.140625 154.445312 78.390625 154.453125 78.652344 C 154.398438 78.804688 154.398438 78.972656 154.453125 79.128906 C 154.550781 79.289062 154.675781 79.425781 154.828125 79.535156 L 156.148438 80.214844 C 156.851562 80.5 157.476562 80.941406 157.976562 81.507812 C 158.320312 81.929688 158.511719 82.457031 158.519531 83.003906 Z M 158.519531 83.003906 "/>
<path style=" stroke:none;fill-rule:nonzero;fill:rgb(0%,65.490198%,78.823531%);fill-opacity:1;" d="M 165.804688 85.652344 L 160.25 85.652344 L 160.25 76.035156 L 165.804688 76.035156 L 165.804688 77.699219 L 162.417969 77.699219 L 162.417969 79.808594 L 165.804688 79.808594 L 165.804688 81.574219 L 162.417969 81.574219 L 162.417969 84.058594 L 165.804688 84.058594 Z M 165.804688 85.652344 "/>
<path style=" stroke:none;fill-rule:nonzero;fill:rgb(0%,65.490198%,78.823531%);fill-opacity:1;" d="M 169.835938 81.949219 L 169.835938 85.652344 L 167.804688 85.652344 L 167.804688 76.035156 L 170.617188 76.035156 C 171.628906 75.957031 172.636719 76.207031 173.496094 76.75 C 174.15625 77.269531 174.511719 78.085938 174.445312 78.925781 C 174.441406 79.460938 174.277344 79.980469 173.96875 80.417969 C 173.625 80.878906 173.171875 81.238281 172.648438 81.472656 C 174.117188 83.738281 175.066406 85.132812 175.496094 85.652344 L 173.226562 85.652344 L 170.921875 81.949219 Z M 169.835938 80.316406 L 170.480469 80.316406 C 170.988281 80.34375 171.492188 80.226562 171.9375 79.976562 C 172.226562 79.726562 172.394531 79.359375 172.394531 78.976562 C 172.394531 78.589844 172.226562 78.222656 171.9375 77.972656 C 171.480469 77.765625 170.980469 77.671875 170.480469 77.699219 L 169.835938 77.699219 Z M 169.835938 80.316406 "/>
<path style=" stroke:none;fill-rule:nonzero;fill:rgb(0%,65.490198%,78.823531%);fill-opacity:1;" d="M 182.167969 76.035156 L 184.234375 76.035156 L 180.847656 85.652344 L 178.644531 85.652344 L 175.257812 76.035156 L 177.289062 76.035156 L 179.121094 81.746094 C 179.121094 82.085938 179.324219 82.492188 179.425781 82.933594 L 179.628906 83.886719 C 179.734375 83.164062 179.894531 82.445312 180.101562 81.746094 Z M 182.167969 76.035156 "/>
<path style=" stroke:none;fill-rule:nonzero;fill:rgb(0%,65.490198%,78.823531%);fill-opacity:1;" d="M 191.316406 85.652344 L 190.640625 83.375 L 187.117188 83.375 L 186.4375 85.652344 L 184.234375 85.652344 L 187.625 75.96875 L 190.132812 75.96875 L 193.519531 85.652344 Z M 190.132812 81.574219 C 189.488281 79.503906 189.148438 78.347656 189.046875 78.175781 C 188.945312 78.007812 189.046875 77.667969 189.046875 77.53125 C 189.046875 78.074219 188.503906 79.46875 187.792969 81.675781 Z M 190.132812 81.574219 "/>
<path style=" stroke:none;fill-rule:nonzero;fill:rgb(0%,65.490198%,78.823531%);fill-opacity:1;" d="M 194.738281 76.035156 L 197.722656 76.035156 C 198.75 75.953125 199.78125 76.152344 200.703125 76.613281 C 201.324219 77.003906 201.679688 77.714844 201.617188 78.449219 C 201.636719 78.957031 201.496094 79.457031 201.210938 79.875 C 200.960938 80.246094 200.566406 80.496094 200.125 80.554688 C 200.644531 80.632812 201.117188 80.898438 201.449219 81.304688 C 201.738281 81.746094 201.878906 82.269531 201.855469 82.800781 C 201.890625 83.605469 201.539062 84.375 200.90625 84.871094 C 200.144531 85.382812 199.242188 85.632812 198.332031 85.585938 L 194.738281 85.585938 Z M 196.773438 79.84375 L 197.957031 79.84375 C 198.371094 79.871094 198.785156 79.777344 199.144531 79.570312 C 199.417969 79.378906 199.5625 79.050781 199.515625 78.71875 C 199.53125 78.40625 199.375 78.109375 199.109375 77.9375 C 198.722656 77.746094 198.289062 77.664062 197.855469 77.699219 L 196.773438 77.699219 Z M 196.773438 81.472656 L 196.773438 83.988281 L 198.09375 83.988281 C 198.535156 84.011719 198.976562 83.894531 199.347656 83.648438 C 199.632812 83.40625 199.785156 83.039062 199.753906 82.664062 C 199.753906 81.847656 199.175781 81.472656 198.027344 81.472656 Z M 196.773438 81.472656 "/>
<path style=" stroke:none;fill-rule:nonzero;fill:rgb(0%,65.490198%,78.823531%);fill-opacity:1;" d="M 203.785156 85.652344 L 203.785156 76.035156 L 205.816406 76.035156 L 205.816406 85.652344 Z M 203.785156 85.652344 "/>
<path style=" stroke:none;fill-rule:nonzero;fill:rgb(0%,65.490198%,78.823531%);fill-opacity:1;" d="M 208.222656 85.652344 L 208.222656 76.035156 L 210.289062 76.035156 L 210.289062 83.988281 L 214.222656 83.988281 L 214.222656 85.652344 Z M 208.222656 85.652344 "/>
<path style=" stroke:none;fill-rule:nonzero;fill:rgb(0%,65.490198%,78.823531%);fill-opacity:1;" d="M 215.847656 85.652344 L 215.847656 76.035156 L 217.878906 76.035156 L 217.878906 85.652344 Z M 215.847656 85.652344 "/>
<path style=" stroke:none;fill-rule:nonzero;fill:rgb(0%,65.490198%,78.823531%);fill-opacity:1;" d="M 224.011719 85.652344 L 221.980469 85.652344 L 221.980469 77.734375 L 219.371094 77.734375 L 219.371094 76.035156 L 226.621094 76.035156 L 226.621094 77.734375 L 224.011719 77.734375 Z M 224.011719 85.652344 "/>
<path style=" stroke:none;fill-rule:nonzero;fill:rgb(0%,65.490198%,78.823531%);fill-opacity:1;" d="M 231.160156 79.976562 L 233.160156 76.035156 L 235.363281 76.035156 L 232.179688 81.914062 L 232.179688 85.652344 L 230.144531 85.652344 L 230.144531 81.984375 L 226.960938 76.035156 L 229.164062 76.035156 Z M 231.160156 79.976562 "/>
</g>
</svg>
