<?xml version="1.0" encoding="UTF-8" standalone="no"?>
<svg
   xmlns:dc="http://purl.org/dc/elements/1.1/"
   xmlns:cc="http://creativecommons.org/ns#"
   xmlns:rdf="http://www.w3.org/1999/02/22-rdf-syntax-ns#"
   xmlns:svg="http://www.w3.org/2000/svg"
   xmlns="http://www.w3.org/2000/svg"
   xmlns:sodipodi="http://sodipodi.sourceforge.net/DTD/sodipodi-0.dtd"
   xmlns:inkscape="http://www.inkscape.org/namespaces/inkscape"
   version="1.1"
   id="svg2"
   xml:space="preserve"
   width="1706.6667"
   height="677.96002"
   viewBox="0 0 1706.6667 677.96002"
   sodipodi:docname="lablabs_logo_color-01.svg"
   inkscape:version="1.0.2 (e86c870879, 2021-01-15)"><metadata
     id="metadata8"><rdf:RDF><cc:Work
         rdf:about=""><dc:format>image/svg+xml</dc:format><dc:type
           rdf:resource="http://purl.org/dc/dcmitype/StillImage" /><dc:title></dc:title></cc:Work></rdf:RDF></metadata><defs
     id="defs6" /><sodipodi:namedview
     pagecolor="#ffffff"
     bordercolor="#666666"
     borderopacity="1"
     objecttolerance="10"
     gridtolerance="10"
     guidetolerance="10"
     inkscape:pageopacity="0"
     inkscape:pageshadow="2"
     inkscape:window-width="2560"
     inkscape:window-height="1016"
     id="namedview4"
     showgrid="false"
     inkscape:zoom="0.79628902"
     inkscape:cx="853.33337"
     inkscape:cy="338.98001"
     inkscape:window-x="0"
     inkscape:window-y="27"
     inkscape:window-maximized="1"
     inkscape:current-layer="g10" /><g
     id="g10"
     inkscape:groupmode="layer"
     inkscape:label="ink_ext_XXXXXX"
     transform="matrix(1.3333333,0,0,-1.3333333,0,677.96)"><g
       id="g12"
       transform="scale(0.1)"><path
         d="m 4630.92,2647.32 h -162.91 v 162.91 c 0,529.68 -411.7,944.55 -937.25,944.55 -526.31,0 -954.45,-423.73 -954.45,-944.55 h 0.04 v -716.65 h -716.68 v -227.91 h 944.59 v 944.56 h -0.04 c 0,395.17 325.92,716.7 726.54,716.7 397.76,0 709.34,-314.83 709.34,-716.7 V 2419.4 h 390.82 c 242.48,0 439.77,-197.33 439.77,-439.79 0,-242.53 -197.29,-439.77 -439.77,-439.77 v -227.9 c 368.16,0 667.68,299.5 667.68,667.67 0,368.24 -299.52,667.71 -667.68,667.71"
         style="fill:#4db6c5;fill-opacity:1;fill-rule:nonzero;stroke:none"
         id="path14" /><path
         d="m 3357.99,2810.23 c 0,89.84 73.06,162.96 162.88,162.96 89.85,0 162.96,-73.12 162.96,-162.96 v -944.56 h 1083.03 v 227.91 h -855.12 v 716.65 c 0,215.53 -175.35,390.82 -390.87,390.82 -215.44,0 -390.78,-175.29 -390.78,-390.82 V 1539.84 H 2000.53 c -243.81,0 -442.22,196.21 -442.22,437.28 0,243.91 198.41,442.28 442.22,442.28 h 274.48 v 227.92 h -274.48 c -369.53,0 -670.12,-300.66 -670.12,-670.2 0,-366.75 300.59,-665.18 670.12,-665.18 h 2353.51 v 227.9 h -996.05 v 1270.39"
         style="fill:#4db6c5;fill-opacity:1;fill-rule:nonzero;stroke:none"
         id="path16" /><path
         d="m 5874.33,2756.87 h 197.9 v 890.61 h -197.9 v -890.61"
         style="fill:#283776;fill-opacity:1;fill-rule:nonzero;stroke:none"
         id="path18" /><path
         d="m 6534.52,2906.56 c -86.57,0 -149.69,64.28 -149.69,160.78 0,95.25 63.12,160.82 149.69,160.82 80.37,0 152.12,-65.57 152.12,-160.82 0,-96.5 -71.75,-160.78 -152.12,-160.78 z m 152.12,421.76 c -48.2,43.33 -112.54,68.04 -192.93,68.04 -164.54,0 -303.08,-133.6 -303.08,-329.02 0,-196.66 138.54,-329.05 303.08,-329.05 80.39,0 144.73,24.71 192.93,67.99 v -49.41 h 197.94 v 620.98 h -197.94 v -49.53"
         style="fill:#283776;fill-opacity:1;fill-rule:nonzero;stroke:none"
         id="path20" /><path
         d="m 7389.79,2906.56 c -80.43,0 -152.12,64.28 -152.12,160.78 0,95.25 71.69,160.82 152.12,160.82 86.57,0 149.68,-65.57 149.68,-160.82 0,-96.5 -63.11,-160.78 -149.68,-160.78 z m 40.78,489.8 c -80.36,0 -144.71,-24.71 -192.9,-68.04 v 319.16 h -197.95 v -890.61 h 197.95 v 49.41 c 48.19,-43.28 112.54,-67.99 192.9,-67.99 164.52,0 303.09,132.39 303.09,329.05 0,195.42 -138.57,329.02 -303.09,329.02"
         style="fill:#283776;fill-opacity:1;fill-rule:nonzero;stroke:none"
         id="path22" /><path
         d="m 8115.39,3016.62 -147.21,362.44 h -212.75 l 257.3,-601.19 -100.21,-231.34 h 214.02 l 358.7,832.53 h -212.76 l -157.09,-362.44"
         style="fill:#283776;fill-opacity:1;fill-rule:nonzero;stroke:none"
         id="path24" /><path
         d="m 8771.02,3259.1 v 118.75 h -197.93 v -620.98 h 197.93 v 194.18 c 0,160.8 75.44,232.55 213.99,232.55 h 35.87 l 8.62,197.94 c -14.8,3.71 -27.19,4.98 -44.49,4.98 -101.44,0 -169.47,-53.23 -213.99,-127.42"
         style="fill:#283776;fill-opacity:1;fill-rule:nonzero;stroke:none"
         id="path26" /><path
         d="m 9123.16,2756.87 h 197.89 v 620.98 h -197.89 v -620.98"
         style="fill:#283776;fill-opacity:1;fill-rule:nonzero;stroke:none"
         id="path28" /><path
         d="m 9222.07,3673.47 c -66.79,0 -113.77,-51.96 -113.77,-112.56 0,-63.11 46.98,-110.1 113.77,-110.1 66.83,0 115.07,46.99 115.07,110.1 0,60.6 -48.24,112.56 -115.07,112.56"
         style="fill:#283776;fill-opacity:1;fill-rule:nonzero;stroke:none"
         id="path30" /><path
         d="m 9867.89,3396.36 c -77.93,0 -143.49,-28.41 -190.47,-77.89 v 59.38 h -197.96 v -620.98 h 197.96 v 288.2 c 0,119.96 50.68,173.19 128.62,173.19 63.08,0 106.41,-49.48 106.41,-122.48 v -338.91 h 196.65 v 380.97 c 0,155.87 -96.5,258.52 -241.21,258.52"
         style="fill:#283776;fill-opacity:1;fill-rule:nonzero;stroke:none"
         id="path32" /><path
         d="m 10579.9,2915.17 c -52,0 -82.9,25.98 -82.9,90.33 v 215.24 h 183.1 v 157.11 H 10497 v 183.06 h -197.9 v -183.06 h -112.6 v -157.11 h 112.6 v -235.03 c 0,-163.29 92.8,-247.42 247.4,-247.42 70.5,0 121.2,19.79 169.4,45.77 l -45.7,155.88 c -26,-14.83 -63.1,-24.77 -90.3,-24.77"
         style="fill:#283776;fill-opacity:1;fill-rule:nonzero;stroke:none"
         id="path34" /><path
         d="m 11201.7,3396.36 c -79.2,0 -143.5,-28.41 -191.7,-77.89 v 329.01 h -197.9 v -890.61 h 197.9 v 288.2 c 0,119.96 50.7,173.19 127.4,173.19 64.3,0 107.6,-49.48 107.6,-122.48 v -338.91 h 196.7 v 380.97 c 0,155.87 -96.5,258.52 -240,258.52"
         style="fill:#283776;fill-opacity:1;fill-rule:nonzero;stroke:none"
         id="path36" /><path
         d="m 5867.48,1584.12 h 197.94 v 890.63 h -197.94 v -890.63"
         style="fill:#283776;fill-opacity:1;fill-rule:nonzero;stroke:none"
         id="path38" /><path
         d="m 6527.71,1733.71 c -86.62,0 -149.68,64.38 -149.68,160.84 0,95.25 63.06,160.82 149.68,160.82 80.39,0 152.18,-65.57 152.18,-160.82 0,-96.46 -71.79,-160.84 -152.18,-160.84 z m 152.18,421.87 c -48.26,43.34 -112.6,68.03 -192.97,68.03 -164.56,0 -303.09,-133.6 -303.09,-329.06 0,-196.66 138.53,-329.01 303.09,-329.01 80.37,0 144.71,24.75 192.97,68.05 v -49.47 h 197.89 v 620.93 h -197.89 v -49.47"
         style="fill:#283776;fill-opacity:1;fill-rule:nonzero;stroke:none"
         id="path40" /><path
         d="m 7382.99,1733.71 c -80.42,0 -152.18,64.38 -152.18,160.84 0,95.25 71.76,160.82 152.18,160.82 86.56,0 149.69,-65.57 149.69,-160.82 0,-96.46 -63.13,-160.84 -149.69,-160.84 z m 40.84,489.9 c -80.43,0 -144.76,-24.69 -193.02,-68.03 v 319.17 h -197.9 v -890.63 h 197.9 v 49.47 c 48.26,-43.3 112.59,-68.05 193.02,-68.05 164.51,0 303.05,132.35 303.05,329.01 0,195.46 -138.54,329.06 -303.05,329.06"
         style="fill:#283776;fill-opacity:1;fill-rule:nonzero;stroke:none"
         id="path42" /><path
         d="m 8203.96,1961.38 -145.93,29.69 c -39.57,8.62 -46.99,25.97 -46.99,43.33 0,22.23 17.31,48.19 70.48,48.19 60.65,0 97.74,-34.61 103.94,-73.01 l 180.58,35.92 c -24.75,107.64 -127.41,178.11 -282.02,178.11 -157.1,0 -267.21,-82.85 -267.21,-210.28 0,-97.77 65.55,-159.62 180.6,-180.58 l 126.19,-24.77 c 45.77,-8.73 61.86,-24.7 61.86,-45.76 0,-27.21 -28.47,-49.47 -80.44,-49.47 -53.17,0 -101.43,19.73 -110.12,72.92 l -192.92,-39.54 c 21.02,-127.4 145.94,-180.59 291.94,-180.59 163.23,0 282.02,71.74 282.02,209.02 0,91.57 -54.45,162.1 -171.98,186.82"
         style="fill:#283776;fill-opacity:1;fill-rule:nonzero;stroke:none"
         id="path44" /></g></g></svg>
