<svg width="488" height="181" viewBox="0 0 488 181" fill="none" xmlns="http://www.w3.org/2000/svg">
<g clip-path="url(#clip0_8555_7781)">
<path d="M488 0H180V180.35H488V0Z" fill="white"/>
<path d="M180 0H0V180H180V0Z" fill="black"/>
<path d="M238 60H243.7V79.9865H253.567V84.9831H238V60Z" fill="black"/>
<path d="M267.219 60.0225C271.064 60.0225 273.168 61.5234 274.27 65.0924L280.507 85.1865H274.485L272.67 78.9774H261.807L260.026 85.1865H254.004L260.167 65.0924C261.27 61.5234 263.408 60.0225 267.219 60.0225ZM271.352 74.3328L269.034 66.4076C268.751 65.4444 268.18 65.0142 267.219 65.0142C266.257 65.0142 265.721 65.4444 265.438 66.4076L263.159 74.3328H271.352Z" fill="black"/>
<path d="M282.752 60.2031H294.151C299.353 60.2031 302.345 62.6672 302.345 66.9109C302.345 69.3359 301.384 71.1595 299.568 72.2987C301.955 73.4036 303.238 75.4766 303.238 78.2927C303.238 82.6488 300.173 85.1814 294.864 85.1814H282.752V60.1982V60.2031ZM293.795 70.5533C295.718 70.5533 296.826 69.4483 296.826 67.5563C296.826 65.6642 295.723 64.5593 293.795 64.5593H288.31V70.5533H293.795ZM294.508 80.8301C296.43 80.8301 297.538 79.7252 297.538 77.8331C297.538 75.941 296.435 74.8361 294.508 74.8361H288.31V80.8301H294.508Z" fill="black"/>
<path d="M303.057 60.2041H309.006L313.032 70.9111C313.354 71.7667 313.886 72.197 314.779 72.197C315.672 72.197 316.204 71.7667 316.526 70.9111L320.552 60.2041H326.359L321.265 72.769C320.303 75.0913 319.303 76.3038 317.595 76.8367V85.1872H311.822V76.8367C310.114 76.2989 309.113 75.0864 308.152 72.769L303.057 60.2041Z" fill="black"/>
<path d="M328.136 60.2041H338.574C344.523 60.2041 347.944 63.2402 347.944 68.5546C347.944 72.4805 346.089 75.1549 342.707 76.2989L348.441 85.1872H342.171L336.827 76.9051H333.694V85.1872H328.136V60.2041ZM338.574 72.2654C340.892 72.2654 342.244 70.9112 342.244 68.5546C342.244 66.1981 340.892 64.8438 338.574 64.8438H333.694V72.2654H338.574Z" fill="black"/>
<path d="M352.146 60.2041H357.704V85.1872H352.146V60.2041Z" fill="black"/>
<path d="M362.584 60.2041H369.352L379.864 77.8341V60.2041H385.383V85.1872H378.614L368.108 67.5573V85.1872H362.589V60.2041H362.584Z" fill="black"/>
<path d="M394.47 65.2007H387.628V60.2041H407.006V65.2007H400.165V85.1872H394.465V65.2007H394.47Z" fill="black"/>
<path d="M409.251 60.2041H414.951V70.1974H425.638V60.2041H431.338V85.1872H425.638V75.194H414.951V85.1872H409.251V60.2041Z" fill="black"/>
<path d="M237.509 94.4268H243.209V114.413H253.077V119.41H237.509V94.4268Z" fill="black"/>
<path d="M267.219 94.2461C271.064 94.2461 273.168 95.747 274.27 99.3161L280.507 119.41H274.485L272.67 113.201H261.807L260.026 119.41H254.004L260.167 99.3161C261.27 95.747 263.408 94.2461 267.219 94.2461ZM271.352 108.556L269.034 100.631C268.751 99.6681 268.18 99.2378 267.219 99.2378C266.257 99.2378 265.721 99.6681 265.438 100.631L263.159 108.556H271.352Z" fill="black"/>
<path d="M282.752 94.4268H294.151C299.353 94.4268 302.345 96.8909 302.345 101.135C302.345 103.56 301.384 105.383 299.568 106.522C301.955 107.627 303.238 109.7 303.238 112.516C303.238 116.872 300.173 119.405 294.864 119.405H282.752V94.4219V94.4268ZM293.795 104.777C295.718 104.777 296.826 103.672 296.826 101.78C296.826 99.8878 295.723 98.7829 293.795 98.7829H288.31V104.777H293.795ZM294.508 115.054C296.43 115.054 297.538 113.949 297.538 112.057C297.538 110.165 296.435 109.06 294.508 109.06H288.31V115.054H294.508Z" fill="black"/>
<path d="M315.028 119.766C309.577 119.766 305.551 117.16 305.019 111.914H310.397C310.895 114.163 312.783 115.127 315.028 115.127C317.488 115.127 319.269 114.232 319.269 112.237C319.269 107.382 305.556 111.166 305.556 101.564C305.556 96.641 309.616 94.0693 314.677 94.0693C319.737 94.0693 323.656 96.5334 324.329 101.564H318.913C318.342 99.5646 316.595 98.7091 314.672 98.7091C312.749 98.7091 310.895 99.6038 310.895 101.564C310.895 106.131 324.608 102.601 324.608 112.022C324.608 117.053 320.513 119.766 315.023 119.766H315.028Z" fill="black"/>
<path d="M45.9404 100.49C45.9404 89.6414 54.251 81.5695 65.2457 81.5695H70.2819C71.4579 68.8726 81.3594 59.6225 94.0377 59.7056C106.794 59.6225 116.7 68.9557 117.876 81.8189C127.275 83.1634 134.078 90.6485 134.078 100.485C134.078 111.334 125.767 119.406 114.773 119.406H65.2506C54.2559 119.406 45.9453 111.334 45.9453 100.485L45.9404 100.49ZM65.2457 112.18L108.639 112.097V110.415H89.6701V84.2634C89.6701 81.7407 91.5147 79.8046 94.0328 79.8046C96.5509 79.8046 98.3955 81.7407 98.3955 84.2634V101.336H116.442V99.6542H100.157V84.2634C100.157 80.7335 97.5562 78.1227 94.0279 78.1227C90.4997 78.1227 87.8986 80.7286 87.8986 84.2634V110.415L65.2359 110.498C59.6142 110.498 55.3295 106.21 55.3295 100.49C55.3295 94.77 59.6093 90.4823 65.2359 90.4823H69.013V88.8005H65.2359C58.604 88.8005 53.5678 93.846 53.5678 100.49C53.5678 107.134 58.604 112.18 65.2359 112.18H65.2457ZM79.0951 101.331V84.2585C79.0951 75.512 85.5562 68.9557 94.0377 68.9557C102.519 68.9557 108.98 75.5169 108.98 84.2585V90.4823H114.773C120.394 90.4823 124.679 94.77 124.679 100.49C124.679 105.619 121.239 109.574 116.451 110.327V112.092C122.244 111.334 126.441 106.543 126.441 100.485C126.441 93.8411 121.405 88.7956 114.773 88.7956H110.742V84.2536C110.742 74.4168 103.524 67.0979 94.0377 67.181C84.551 67.0979 77.3335 74.4119 77.3335 84.2536V99.6444H63.567V101.326H79.0951V101.331Z" fill="#DDFB86"/>
<path d="M0 0V180.348H488V0H0ZM178.418 178.749H1.59088V1.59384H178.418V178.749ZM486.404 178.749H180.013V1.59384H486.409V178.749H486.404Z" fill="black"/>
</g>
<defs>
<clipPath id="clip0_8555_7781">
<rect width="488" height="181" fill="white"/>
</clipPath>
</defs>
</svg>
